<?xml version="1.0" standalone="no"?>
<!DOCTYPE svg PUBLIC "-//W3C//DTD SVG 20010904//EN"
 "http://www.w3.org/TR/2001/REC-SVG-20010904/DTD/svg10.dtd">
<svg version="1.0" xmlns="http://www.w3.org/2000/svg"
 width="500.000000pt" height="500.000000pt" viewBox="0 0 500.000000 500.000000"
 preserveAspectRatio="xMidYMid meet">
<metadata>
Created by potrace 1.11, written by Peter Selinger 2001-2013
</metadata>
<g transform="translate(0.000000,500.000000) scale(0.100000,-0.100000)"
fill="#000000" stroke="none">
<path d="M259 4741 l-29 -30 2 -640 3 -640 23 -23 c22 -23 24 -23 363 -26
l340 -3 29 30 30 29 0 271 0 271 269 0 270 0 28 24 28 24 3 331 c3 361 0 381
-54 401 -15 6 -277 10 -650 10 l-626 0 -29 -29z"/>
<path d="M3419 4755 c-48 -26 -50 -46 -47 -399 l3 -328 28 -24 28 -24 270 0
269 0 0 -269 0 -270 24 -28 24 -28 328 -3 c235 -2 336 1 356 9 59 24 58 11 58
684 0 668 1 658 -55 683 -41 19 -1251 16 -1286 -3z"/>
<path d="M281 1616 c-51 -29 -50 -17 -51 -678 0 -369 4 -627 10 -642 21 -57
14 -56 684 -56 456 0 622 3 641 12 53 24 55 40 55 383 0 344 -3 365 -56 385
-14 6 -142 10 -285 10 l-259 0 0 269 0 270 -24 28 -24 28 -334 2 c-264 2 -338
0 -357 -11z"/>
<path d="M4000 1601 l-30 -29 0 -271 0 -271 -271 0 -271 0 -29 -29 -29 -29 0
-337 0 -337 29 -29 29 -29 637 0 637 0 29 29 29 29 0 636 0 635 -24 28 -24 28
-342 3 -341 3 -29 -30z"/>
</g>
</svg>
