<?xml version="1.0" encoding="UTF-8" standalone="no"?>
<svg width="107px" height="19px" viewBox="0 0 107 19" version="1.1" xmlns="http://www.w3.org/2000/svg" xmlns:xlink="http://www.w3.org/1999/xlink">
    <!-- Generator: Sketch 3.8.3 (29802) - http://www.bohemiancoding.com/sketch -->
    <title>Page 1 Copy</title>
    <desc>Created with Sketch.</desc>
    <defs>
        <polygon id="path-1" points="15.1057799 0.0893703704 0.222574017 0.0893703704 0.222574017 18.7652914 15.1057799 18.7652914 15.1057799 0.0893703704"></polygon>
        <polygon id="path-3" points="18.7511659 18.7653852 18.7511659 0.0893703704 0.137908515 0.0893703704 0.137908515 18.7653852 18.7511659 18.7653852"></polygon>
    </defs>
    <g id="Welcome" stroke="none" stroke-width="1" fill="none" fill-rule="evenodd">
        <g id="Tablet-Portrait-Copy" transform="translate(-47.000000, -13.000000)">
            <g id="Page-1-Copy" transform="translate(47.000000, 13.000000)">
                <path d="M57.166362,15.6303852 L55.1459777,15.6303852 L55.1459777,13.6004346 C55.1459777,13.3872123 54.9733293,13.2126938 54.7602638,13.2126938 L52.3525301,13.2126938 C52.1396983,13.2126938 51.9668162,13.3872123 51.9668162,13.6004346 L51.9668162,18.4339407 C51.9668162,18.6481012 52.1396983,18.8214469 52.3525301,18.8214469 L57.166362,18.8214469 C57.3789603,18.8214469 57.5518424,18.6481012 57.5518424,18.4339407 L57.5518424,16.0174222 C57.5518424,15.8034963 57.3789603,15.6303852 57.166362,15.6303852" id="Fill-1" fill="#FEFEFE"></path>
                <path d="M0,1.06472716 C0,0.894196296 0.0460240175,0.757677778 0.139240175,0.655875309 C0.232222707,0.553134568 0.363286026,0.502937037 0.533831878,0.502937037 L12.6033384,0.502937037 C12.7818275,0.502937037 12.9196659,0.555245679 13.017321,0.660801235 C13.1145087,0.767295062 13.162869,0.908504938 13.162869,1.08794938 L13.162869,4.10754198 C13.162869,4.2461716 13.1145087,4.37893704 13.017321,4.50349259 C12.9196659,4.62945556 12.7780895,4.69255432 12.5914236,4.69255432 L4.70753275,4.69255432 L4.70753275,7.7217642 L10.7908799,7.7217642 C10.9453057,7.7217642 11.072631,7.75859136 11.1737904,7.83248025 C11.2751834,7.90472716 11.3261135,8.02810988 11.3261135,8.19840617 L11.3261135,10.8363568 C11.3261135,10.9508259 11.2814913,11.0608383 11.1920131,11.1666284 C11.1030022,11.272184 10.973107,11.3251963 10.803262,11.3251963 L4.70753275,11.3251963 L4.70753275,14.4526901 L12.8832205,14.4526901 C13.2486092,14.4526901 13.4310699,14.6394062 13.4310699,15.0123691 L13.4310699,18.0814556 C13.4310699,18.1630852 13.3983624,18.2362704 13.3334148,18.3012457 C13.3007074,18.5290111 13.1350677,18.6423074 12.8348603,18.6423074 L0.533831878,18.6423074 C0.371462882,18.6423074 0.242735808,18.5993815 0.145548035,18.5144679 C0.0478930131,18.4281469 0,18.2953815 0,18.1171099 L0,1.06472716 Z" id="Fill-3" fill="#FEFEFE"></path>
                <path d="M16.4719024,1.04044938 C16.4719024,0.89431358 16.5160574,0.767412346 16.6060028,0.660918519 C16.6950138,0.555362963 16.8286469,0.503054321 17.007136,0.503054321 L20.9855269,0.503054321 C21.0988347,0.503054321 21.2165814,0.530967901 21.3378325,0.588202469 C21.4597845,0.645202469 21.5651491,0.743251852 21.6546273,0.881412346 C22.6844439,2.55106667 23.7065509,4.19562222 24.7209483,5.81601728 C25.7346448,7.43711605 26.7600225,9.08120247 27.7984832,10.7510914 L27.7984832,0.966795062 C27.8304897,0.820659259 27.895671,0.706424691 27.993326,0.62502963 C28.0905138,0.5434 28.2038216,0.503054321 28.3337168,0.503054321 L31.8007037,0.503054321 C31.9714832,0.503054321 32.1132932,0.549264198 32.2270683,0.643325926 C32.3406098,0.737622222 32.3971469,0.868980247 32.3971469,1.04044938 L32.3971469,18.1657827 C32.3971469,18.3283383 32.3487867,18.448437 32.2511317,18.5258444 C32.1534766,18.6034864 32.0203107,18.6421901 31.8499985,18.6421901 L27.9687954,18.6421901 C27.8634308,18.6421901 27.7692801,18.6055975 27.6891469,18.5317086 C27.6078456,18.4592272 27.52304,18.3614123 27.4335618,18.2392025 C26.3544504,16.4478074 25.2879548,14.6765852 24.2336076,12.9255358 C23.1790269,11.1744864 22.1085596,9.40302963 21.0217386,7.61163457 L21.0217386,18.1047951 C21.0217386,18.2840049 20.981088,18.4172395 20.9007212,18.5075481 C20.8189526,18.5978568 20.6734046,18.6421901 20.4622081,18.6421901 L17.007136,18.6421901 C16.8209373,18.6421901 16.6849679,18.591758 16.6001622,18.4892519 C16.5148893,18.3874494 16.4719024,18.263363 16.4719024,18.1172272 L16.4719024,1.04044938 Z" id="Fill-5" fill="#FEFEFE"></path>
                <path d="M36.4604836,1.06472716 C36.4604836,0.894196296 36.5069749,0.758616049 36.6006583,0.660801235 C36.6931736,0.563924691 36.8050797,0.510677778 36.9349749,0.502937037 L48.5774159,0.502937037 C48.7640819,0.502937037 48.9033221,0.555245679 48.9972391,0.660801235 C49.0904552,0.767295062 49.1369465,0.908504938 49.1369465,1.08794938 L49.1369465,4.10754198 C49.1369465,4.2461716 49.0885862,4.37893704 48.9909312,4.50349259 C48.8937434,4.62945556 48.7516998,4.69255432 48.5652675,4.69255432 L41.1684836,4.69255432 L41.1684836,8.47918395 L46.6303897,8.47918395 C46.7850491,8.47918395 46.9147107,8.52164074 47.0205426,8.60702346 C47.12544,8.69310988 47.1780055,8.82986296 47.1780055,9.01564074 L47.1780055,11.9357765 C47.1780055,12.0751099 47.1315142,12.2067025 47.0378308,12.3326654 C46.9453155,12.4595667 46.8175229,12.5224309 46.6551539,12.5224309 L41.1684836,12.5224309 L41.1684836,18.1171099 C41.1684836,18.4668506 40.9815841,18.6423074 40.6087194,18.6423074 L36.8985295,18.6423074 C36.6060317,18.6014926 36.4604836,18.4300235 36.4604836,18.1290728 L36.4604836,1.06472716 Z" id="Fill-7" fill="#FEFEFE"></path>
                <g id="Group-11" transform="translate(71.956332, 0.145244)">
                    <mask id="mask-2" fill="white">
                        <use xlink:href="#path-1"></use>
                    </mask>
                    <g id="Clip-10"></g>
                    <path d="M14.7119627,1.67678519 C14.8507356,1.75794568 14.951895,1.8637358 15.0163753,1.99439012 C15.0815566,2.12527901 15.0687072,2.27915556 14.9801635,2.45836543 L12.9242683,5.38952593 C12.8347902,5.52815556 12.7394714,5.60767407 12.6380784,5.62808148 C12.5362181,5.64848889 12.413098,5.61447654 12.26755,5.5241679 C11.8692203,5.22321728 11.4311745,4.99099506 10.9529452,4.82820494 C10.4742487,4.66518025 9.96728362,4.58425432 9.43205,4.58425432 C8.76738843,4.58425432 8.15552598,4.70974815 7.59552817,4.96261235 C7.03623122,5.21547654 6.55332948,5.56122963 6.14775742,6.00104444 C5.74195175,6.44062469 5.42539061,6.95362469 5.19854127,7.53980988 C4.9714583,8.12552593 4.85815044,8.75322963 4.85815044,9.42174815 C4.85815044,10.0886247 4.9714583,10.7135136 5.19854127,11.2954765 C5.42539061,11.8783778 5.74195175,12.3878593 6.14775742,12.8227481 C6.55332948,13.2585753 7.03623122,13.6024519 7.59552817,13.8548469 C8.15552598,14.1079457 8.76738843,14.2339086 9.43205,14.2339086 C9.96728362,14.2339086 10.4789212,14.150637 10.96486,13.9838593 C11.4522007,13.8161432 11.8937509,13.5820444 12.2913797,13.2808593 C12.4378622,13.1914889 12.5586461,13.1551309 12.6567683,13.1701432 C12.7539561,13.1877358 12.8511439,13.2604519 12.9483317,13.3904025 L15.0285238,16.3954519 C15.1175347,16.5756 15.1294496,16.7254889 15.0652028,16.8479333 C14.999788,16.9694395 14.8995631,17.071242 14.7607902,17.1528716 C13.9987072,17.6658716 13.1775172,18.0629951 12.2972203,18.3440074 C11.417157,18.6247852 10.4913033,18.7652914 9.51755655,18.7652914 C8.65735131,18.7652914 7.83289061,18.6557481 7.04160459,18.4357235 C6.25078581,18.2161679 5.51066354,17.902316 4.82170502,17.4955753 C4.13181201,17.0876617 3.50523122,16.6006988 2.94219629,16.0351556 C2.37822686,15.4696123 1.89368974,14.8419086 1.48835131,14.1541556 C1.08231201,13.4656988 0.770189738,12.7249333 0.551283624,11.930921 C0.331676638,11.1373778 0.222574017,10.3084148 0.222574017,9.44590864 C0.222574017,8.58269877 0.331676638,7.75350123 0.551283624,6.95948889 C0.770189738,6.16571111 1.08231201,5.42072346 1.48835131,4.72429136 C1.89368974,4.02809383 2.37822686,3.39476049 2.94219629,2.82522963 C3.50523122,2.25499506 4.13181201,1.7680321 4.82170502,1.36480988 C5.51066354,0.96205679 6.25078581,0.648204938 7.04160459,0.424661728 C7.83289061,0.200883951 8.65735131,0.0892296296 9.51755655,0.0892296296 C10.4913033,0.0892296296 11.4087465,0.225044444 12.273157,0.498081481 C13.1368666,0.771118519 13.9498797,1.16331605 14.7119627,1.67678519" id="Fill-9" fill="#FEFEFE" mask="url(#mask-2)"></path>
                </g>
                <g id="Group-14" transform="translate(88.076419, 0.145244)">
                    <mask id="mask-4" fill="white">
                        <use xlink:href="#path-3"></use>
                    </mask>
                    <g id="Clip-13"></g>
                    <path d="M4.84544127,9.43310123 C4.84544127,10.1088914 4.95898275,10.7405827 5.18536485,11.3265333 C5.41268144,11.9134222 5.73017707,12.423842 6.13901987,12.8594346 C6.54879716,13.2952617 7.03286703,13.6370272 7.59193035,13.8849654 C8.15052642,14.1340765 8.76589323,14.2576938 9.43849803,14.2576938 C10.1106356,14.2576938 10.728105,14.1340765 11.29114,13.8849654 C11.8541749,13.6370272 12.3396465,13.2952617 12.7489566,12.8594346 C13.1577993,12.423842 13.4762295,11.9134222 13.7026116,11.3265333 C13.9299282,10.7405827 14.0430024,10.1088914 14.0430024,9.43310123 C14.0430024,8.76552099 13.9299282,8.13664444 13.7026116,7.5464716 C13.4762295,6.95582963 13.1577993,6.44048395 12.7489566,6.0009037 C12.3396465,5.56132346 11.8541749,5.21557037 11.29114,4.9624716 C10.728105,4.70984198 10.1106356,4.58387901 9.43849803,4.58387901 C8.76589323,4.58387901 8.15052642,4.70984198 7.59193035,4.9624716 C7.03286703,5.21557037 6.54879716,5.56132346 6.13901987,6.0009037 C5.73017707,6.44048395 5.41268144,6.95582963 5.18536485,7.5464716 C4.95898275,8.13664444 4.84544127,8.76552099 4.84544127,9.43310123 M0.137908515,9.44553333 C0.137908515,8.58302716 0.246777511,7.75359506 0.465917249,6.95958272 C0.684823362,6.16557037 0.997412882,5.42081728 1.40368581,4.72438519 C1.80925786,4.02818765 2.29379498,3.39461975 2.85823166,2.82532346 C3.42266834,2.25485432 4.04971638,1.76789136 4.73914214,1.3649037 C5.42903515,0.962150617 6.16915742,0.648298765 6.9609107,0.424755556 C7.7519631,0.200977778 8.57805917,0.0893234568 9.43849803,0.0893234568 C10.2900592,0.0893234568 11.1140526,0.200977778 11.9093103,0.424755556 C12.7048015,0.648298765 13.4470264,0.962150617 14.1378539,1.3649037 C14.8275133,1.76789136 15.4557295,2.25485432 16.0248386,2.82532346 C16.5918452,3.39461975 17.0768496,4.02818765 17.4789172,4.72438519 C17.8809849,5.42081728 18.1935745,6.16557037 18.4166858,6.95958272 C18.6397972,7.75359506 18.751236,8.58302716 18.751236,9.44553333 C18.751236,10.3085086 18.6397972,11.1374716 18.4166858,11.9307802 C18.1935745,12.7247926 17.8809849,13.4657926 17.4789172,14.1542494 C17.0768496,14.8420025 16.5918452,15.4694716 16.0248386,16.0352494 C15.4557295,16.6007926 14.8275133,17.0877556 14.1378539,17.4954346 C13.4470264,17.9021753 12.7048015,18.2160272 11.9093103,18.4358173 C11.1140526,18.655842 10.2900592,18.7653852 9.43849803,18.7653852 C8.57805917,18.7653852 7.7519631,18.655842 6.9609107,18.4358173 C6.16915742,18.2160272 5.42903515,17.9021753 4.73914214,17.4954346 C4.04971638,17.0877556 3.42266834,16.6007926 2.85823166,16.0352494 C2.29379498,15.4694716 1.80925786,14.8420025 1.40368581,14.1542494 C0.997412882,13.4657926 0.684823362,12.7247926 0.465917249,11.9307802 C0.246777511,11.1374716 0.137908515,10.3085086 0.137908515,9.44553333" id="Fill-12" fill="#FEFEFE" mask="url(#mask-4)"></path>
                </g>
                <path d="M57.166362,0.539693827 L52.3525301,0.539693827 C52.1396983,0.539693827 51.9668162,0.712804938 51.9668162,0.926965432 L51.9668162,5.7597679 C51.9668162,5.97275556 52.1396983,6.14703951 52.3525301,6.14703951 L54.7602638,6.14703951 C54.9733293,6.14703951 55.1459777,5.97275556 55.1459777,5.7597679 L55.1459777,3.72981728 L57.166362,3.72981728 C57.3789603,3.72981728 57.5518424,3.55764444 57.5518424,3.34348395 L57.5518424,0.926965432 C57.5518424,0.712804938 57.3789603,0.539693827 57.166362,0.539693827" id="Fill-15" fill="#FEFEFE"></path>
                <path d="M69.7903061,0.539693827 L64.9767079,0.539693827 C64.7636424,0.539693827 64.5912275,0.712804938 64.5912275,0.926965432 L64.5912275,3.34348395 C64.5912275,3.55764444 64.7636424,3.72981728 64.9767079,3.72981728 L66.997793,3.72981728 L66.997793,5.7597679 C66.997793,5.97275556 67.1702079,6.14703951 67.3832734,6.14703951 L69.7903061,6.14703951 C70.0038389,6.14703951 70.1762537,5.97275556 70.1762537,5.7597679 L70.1762537,0.926965432 C70.1762537,0.712804938 70.0038389,0.539693827 69.7903061,0.539693827" id="Fill-17" fill="#FEFEFE"></path>
                <path d="M69.7903061,13.2127877 L67.3832734,13.2127877 C67.1702079,13.2127877 66.997793,13.3873062 66.997793,13.6002938 L66.997793,15.630479 L64.9767079,15.630479 C64.7636424,15.630479 64.5912275,15.8035901 64.5912275,16.017516 L64.5912275,18.4340346 C64.5912275,18.6479605 64.7636424,18.8213062 64.9767079,18.8213062 L69.7903061,18.8213062 C70.0038389,18.8213062 70.1762537,18.6479605 70.1762537,18.4340346 L70.1762537,13.6002938 C70.1762537,13.3873062 70.0038389,13.2127877 69.7903061,13.2127877" id="Fill-19" fill="#FEFEFE"></path>
            </g>
        </g>
    </g>
</svg>