<?xml version="1.0" encoding="UTF-8" standalone="no"?>
<svg width="30px" height="30px" viewBox="0 0 30 30" version="1.1" xmlns="http://www.w3.org/2000/svg" xmlns:xlink="http://www.w3.org/1999/xlink">
    <!-- Generator: Sketch 39.1 (31720) - http://www.bohemiancoding.com/sketch -->
    <title>Shape</title>
    <desc>Created with Sketch.</desc>
    <defs></defs>
    <g id="Welcome" stroke="none" stroke-width="1" fill="none" fill-rule="evenodd">
        <g id="Mobile-Portrait" transform="translate(-53.000000, -2194.000000)" fill="#E02E47">
            <path d="M80,2194 L56,2194 C54.35,2194 53,2195.35 53,2197 L53,2221 C53,2222.65 54.35,2224 56,2224 L80,2224 C81.65,2224 83,2222.65 83,2221 L83,2197 C83,2195.35 81.65,2194 80,2194 L80,2194 Z M78.5,2197 L78.5,2201.5 L75.5,2201.5 C74.6,2201.5 74,2202.1 74,2203 L74,2206 L78.5,2206 L78.5,2210.5 L74,2210.5 L74,2221 L69.5,2221 L69.5,2210.5 L66.5,2210.5 L66.5,2206 L69.5,2206 L69.5,2202.25 C69.5,2199.4 71.9,2197 74.75,2197 L78.5,2197 L78.5,2197 Z" id="Shape"></path>
        </g>
    </g>
</svg>