<?xml version="1.0" encoding="UTF-8" standalone="no"?>
<svg width="18px" height="18px" viewBox="0 0 18 18" version="1.1" xmlns="http://www.w3.org/2000/svg" xmlns:xlink="http://www.w3.org/1999/xlink">
    <!-- Generator: Sketch 3.8.3 (29802) - http://www.bohemiancoding.com/sketch -->
    <title>Shape Copy 7</title>
    <desc>Created with Sketch.</desc>
    <defs></defs>
    <g id="Welcome" stroke="none" stroke-width="1" fill="none" fill-rule="evenodd">
        <g id="Tablet-Portrait-Copy" transform="translate(-414.000000, -2440.000000)" fill="#E02E47">
            <path d="M417.6,2447.8 C419,2450.6 421.4,2452.9 424.2,2454.4 L426.4,2452.2 C426.7,2451.9 427.1,2451.8 427.4,2452 C428.5,2452.4 429.7,2452.6 431,2452.6 C431.6,2452.6 432,2453 432,2453.6 L432,2457 C432,2457.6 431.6,2458 431,2458 C421.6,2458 414,2450.4 414,2441 C414,2440.4 414.4,2440 415,2440 L418.5,2440 C419.1,2440 419.5,2440.4 419.5,2441 C419.5,2442.2 419.7,2443.4 420.1,2444.6 C420.2,2444.9 420.1,2445.3 419.9,2445.6 L417.6,2447.8 L417.6,2447.8 Z" id="Shape-Copy-7"></path>
        </g>
    </g>
</svg>