<?xml version="1.0" encoding="UTF-8" standalone="no"?>
<svg width="24px" height="24px" viewBox="0 0 24 24" version="1.1" xmlns="http://www.w3.org/2000/svg" xmlns:xlink="http://www.w3.org/1999/xlink">
    <!-- Generator: Sketch 3.8.3 (29802) - http://www.bohemiancoding.com/sketch -->
    <title>Shape</title>
    <desc>Created with Sketch.</desc>
    <defs></defs>
    <g id="Welcome" stroke="none" stroke-width="1" fill="none" fill-rule="evenodd">
        <g id="Tablet-Portrait-Copy" transform="translate(-692.000000, -13.000000)" fill="#FFFFFF">
            <path d="M713.6,13 L694.4,13 C693.08,13 692,14.08 692,15.4 L692,34.6 C692,35.92 693.08,37 694.4,37 L713.6,37 C714.92,37 716,35.92 716,34.6 L716,15.4 C716,14.08 714.92,13 713.6,13 L713.6,13 Z M699.2,33.4 L695.6,33.4 L695.6,22.6 L699.2,22.6 L699.2,33.4 L699.2,33.4 Z M697.4,20.56 C696.2,20.56 695.24,19.6 695.24,18.4 C695.24,17.2 696.2,16.24 697.4,16.24 C698.6,16.24 699.56,17.2 699.56,18.4 C699.56,19.6 698.6,20.56 697.4,20.56 L697.4,20.56 Z M712.4,33.4 L708.8,33.4 L708.8,27.04 C708.8,26.08 707.96,25.24 707,25.24 C706.04,25.24 705.2,26.08 705.2,27.04 L705.2,33.4 L701.6,33.4 L701.6,22.6 L705.2,22.6 L705.2,24.04 C705.8,23.08 707.12,22.36 708.2,22.36 C710.48,22.36 712.4,24.28 712.4,26.56 L712.4,33.4 L712.4,33.4 Z" id="Shape"></path>
        </g>
    </g>
</svg>