<?xml version="1.0" encoding="UTF-8" standalone="no"?>
<svg width="30px" height="30px" viewBox="0 0 30 30" version="1.1" xmlns="http://www.w3.org/2000/svg" xmlns:xlink="http://www.w3.org/1999/xlink">
    <!-- Generator: Sketch 39.1 (31720) - http://www.bohemiancoding.com/sketch -->
    <title>Shape</title>
    <desc>Created with Sketch.</desc>
    <defs></defs>
    <g id="Welcome" stroke="none" stroke-width="1" fill="none" fill-rule="evenodd">
        <g id="Mobile-Portrait" transform="translate(-183.000000, -2194.000000)" fill="#E02E47">
            <path d="M210,2194 L186,2194 C184.35,2194 183,2195.35 183,2197 L183,2221 C183,2222.65 184.35,2224 186,2224 L210,2224 C211.65,2224 213,2222.65 213,2221 L213,2197 C213,2195.35 211.65,2194 210,2194 L210,2194 Z M198,2203 C201.3,2203 204,2205.7 204,2209 C204,2212.3 201.3,2215 198,2215 C194.7,2215 192,2212.3 192,2209 C192,2205.7 194.7,2203 198,2203 L198,2203 Z M186.75,2221 C186.3,2221 186,2220.7 186,2220.25 L186,2207.5 L189.15,2207.5 C189,2207.95 189,2208.55 189,2209 C189,2213.95 193.05,2218 198,2218 C202.95,2218 207,2213.95 207,2209 C207,2208.55 207,2207.95 206.85,2207.5 L210,2207.5 L210,2220.25 C210,2220.7 209.7,2221 209.25,2221 L186.75,2221 L186.75,2221 Z M210,2200.75 C210,2201.2 209.7,2201.5 209.25,2201.5 L206.25,2201.5 C205.8,2201.5 205.5,2201.2 205.5,2200.75 L205.5,2197.75 C205.5,2197.3 205.8,2197 206.25,2197 L209.25,2197 C209.7,2197 210,2197.3 210,2197.75 L210,2200.75 L210,2200.75 Z" id="Shape"></path>
        </g>
    </g>
</svg>