<?xml version="1.0" encoding="UTF-8" standalone="no"?>
<svg width="25px" height="24px" viewBox="0 0 25 24" version="1.1" xmlns="http://www.w3.org/2000/svg" xmlns:xlink="http://www.w3.org/1999/xlink">
    <!-- Generator: Sketch 3.8.3 (29802) - http://www.bohemiancoding.com/sketch -->
    <title>Shape</title>
    <desc>Created with Sketch.</desc>
    <defs></defs>
    <g id="Welcome" stroke="none" stroke-width="1" fill="none" fill-rule="evenodd">
        <g id="Tablet-Portrait-Copy" transform="translate(-608.000000, -13.000000)" fill="#FFFFFF">
            <path d="M630.266667,13 L611.066667,13 C609.746667,13 608.666667,14.08 608.666667,15.4 L608.666667,34.6 C608.666667,35.92 609.746667,37 611.066667,37 L630.266667,37 C631.586667,37 632.666667,35.92 632.666667,34.6 L632.666667,15.4 C632.666667,14.08 631.586667,13 630.266667,13 L630.266667,13 Z M627.506667,21.76 C627.386667,27.28 623.906667,31.12 618.626667,31.36 C616.466667,31.48 614.906667,30.76 613.466667,29.92 C615.026667,30.16 617.066667,29.56 618.146667,28.6 C616.586667,28.48 615.626667,27.64 615.146667,26.32 C615.626667,26.44 616.106667,26.32 616.466667,26.32 C615.026667,25.84 614.066667,25 613.946667,23.08 C614.306667,23.32 614.786667,23.44 615.266667,23.44 C614.186667,22.84 613.466667,20.56 614.306667,19.12 C615.866667,20.8 617.786667,22.24 620.906667,22.48 C620.066667,19.12 624.626667,17.32 626.426667,19.6 C627.266667,19.48 627.866667,19.12 628.466667,18.88 C628.226667,19.72 627.746667,20.2 627.146667,20.68 C627.746667,20.56 628.346667,20.44 628.826667,20.2 C628.706667,20.8 628.106667,21.28 627.506667,21.76 L627.506667,21.76 Z" id="Shape"></path>
        </g>
    </g>
</svg>