<?xml version="1.0" encoding="UTF-8" standalone="no"?>
<svg width="25px" height="24px" viewBox="0 0 25 24" version="1.1" xmlns="http://www.w3.org/2000/svg" xmlns:xlink="http://www.w3.org/1999/xlink">
    <!-- Generator: Sketch 3.8.3 (29802) - http://www.bohemiancoding.com/sketch -->
    <title>Shape</title>
    <desc>Created with Sketch.</desc>
    <defs></defs>
    <g id="Welcome" stroke="none" stroke-width="1" fill="none" fill-rule="evenodd">
        <g id="Tablet-Portrait-Copy" transform="translate(-650.000000, -13.000000)" fill="#FFFFFF">
            <path d="M671.933333,13 L652.733333,13 C651.413333,13 650.333333,14.08 650.333333,15.4 L650.333333,34.6 C650.333333,35.92 651.413333,37 652.733333,37 L671.933333,37 C673.253333,37 674.333333,35.92 674.333333,34.6 L674.333333,15.4 C674.333333,14.08 673.253333,13 671.933333,13 L671.933333,13 Z M662.333333,20.2 C664.973333,20.2 667.133333,22.36 667.133333,25 C667.133333,27.64 664.973333,29.8 662.333333,29.8 C659.693333,29.8 657.533333,27.64 657.533333,25 C657.533333,22.36 659.693333,20.2 662.333333,20.2 L662.333333,20.2 Z M653.333333,34.6 C652.973333,34.6 652.733333,34.36 652.733333,34 L652.733333,23.8 L655.253333,23.8 C655.133333,24.16 655.133333,24.64 655.133333,25 C655.133333,28.96 658.373333,32.2 662.333333,32.2 C666.293333,32.2 669.533333,28.96 669.533333,25 C669.533333,24.64 669.533333,24.16 669.413333,23.8 L671.933333,23.8 L671.933333,34 C671.933333,34.36 671.693333,34.6 671.333333,34.6 L653.333333,34.6 L653.333333,34.6 Z M671.933333,18.4 C671.933333,18.76 671.693333,19 671.333333,19 L668.933333,19 C668.573333,19 668.333333,18.76 668.333333,18.4 L668.333333,16 C668.333333,15.64 668.573333,15.4 668.933333,15.4 L671.333333,15.4 C671.693333,15.4 671.933333,15.64 671.933333,16 L671.933333,18.4 L671.933333,18.4 Z" id="Shape"></path>
        </g>
    </g>
</svg>