<?xml version="1.0" encoding="UTF-8" standalone="no"?>
<svg width="30px" height="30px" viewBox="0 0 30 30" version="1.1" xmlns="http://www.w3.org/2000/svg" xmlns:xlink="http://www.w3.org/1999/xlink">
    <!-- Generator: Sketch 39.1 (31720) - http://www.bohemiancoding.com/sketch -->
    <title>Shape</title>
    <desc>Created with Sketch.</desc>
    <defs></defs>
    <g id="Welcome" stroke="none" stroke-width="1" fill="none" fill-rule="evenodd">
        <g id="Mobile-Portrait" transform="translate(-248.000000, -2194.000000)" fill="#E02E47">
            <path d="M275,2194 L251,2194 C249.35,2194 248,2195.35 248,2197 L248,2221 C248,2222.65 249.35,2224 251,2224 L275,2224 C276.65,2224 278,2222.65 278,2221 L278,2197 C278,2195.35 276.65,2194 275,2194 L275,2194 Z M257,2219.5 L252.5,2219.5 L252.5,2206 L257,2206 L257,2219.5 L257,2219.5 Z M254.75,2203.45 C253.25,2203.45 252.05,2202.25 252.05,2200.75 C252.05,2199.25 253.25,2198.05 254.75,2198.05 C256.25,2198.05 257.45,2199.25 257.45,2200.75 C257.45,2202.25 256.25,2203.45 254.75,2203.45 L254.75,2203.45 Z M273.5,2219.5 L269,2219.5 L269,2211.55 C269,2210.35 267.95,2209.3 266.75,2209.3 C265.55,2209.3 264.5,2210.35 264.5,2211.55 L264.5,2219.5 L260,2219.5 L260,2206 L264.5,2206 L264.5,2207.8 C265.25,2206.6 266.9,2205.7 268.25,2205.7 C271.1,2205.7 273.5,2208.1 273.5,2210.95 L273.5,2219.5 L273.5,2219.5 Z" id="Shape"></path>
        </g>
    </g>
</svg>