<?xml version="1.0" encoding="UTF-8" standalone="no"?>
<svg width="30px" height="30px" viewBox="0 0 30 30" version="1.1" xmlns="http://www.w3.org/2000/svg" xmlns:xlink="http://www.w3.org/1999/xlink">
    <!-- Generator: Sketch 39.1 (31720) - http://www.bohemiancoding.com/sketch -->
    <title>Shape</title>
    <desc>Created with Sketch.</desc>
    <defs></defs>
    <g id="Welcome" stroke="none" stroke-width="1" fill="none" fill-rule="evenodd">
        <g id="Mobile-Portrait" transform="translate(-118.000000, -2194.000000)" fill="#E02E47">
            <path d="M145,2194 L121,2194 C119.35,2194 118,2195.35 118,2197 L118,2221 C118,2222.65 119.35,2224 121,2224 L145,2224 C146.65,2224 148,2222.65 148,2221 L148,2197 C148,2195.35 146.65,2194 145,2194 L145,2194 Z M141.55,2204.95 C141.4,2211.85 137.05,2216.65 130.45,2216.95 C127.75,2217.1 125.8,2216.2 124,2215.15 C125.95,2215.45 128.5,2214.7 129.85,2213.5 C127.9,2213.35 126.7,2212.3 126.1,2210.65 C126.7,2210.8 127.3,2210.65 127.75,2210.65 C125.95,2210.05 124.75,2209 124.6,2206.6 C125.05,2206.9 125.65,2207.05 126.25,2207.05 C124.9,2206.3 124,2203.45 125.05,2201.65 C127,2203.75 129.4,2205.55 133.3,2205.85 C132.25,2201.65 137.95,2199.4 140.2,2202.25 C141.25,2202.1 142,2201.65 142.75,2201.35 C142.45,2202.4 141.85,2203 141.1,2203.6 C141.85,2203.45 142.6,2203.3 143.2,2203 C143.05,2203.75 142.3,2204.35 141.55,2204.95 L141.55,2204.95 Z" id="Shape"></path>
        </g>
    </g>
</svg>