<?xml version="1.0" encoding="UTF-8" standalone="no"?>
<svg width="192px" height="27px" viewBox="0 0 192 27" version="1.1" xmlns="http://www.w3.org/2000/svg" xmlns:xlink="http://www.w3.org/1999/xlink">
    <!-- Generator: Sketch 3.8.3 (29802) - http://www.bohemiancoding.com/sketch -->
    <title>Group Copy 3</title>
    <desc>Created with Sketch.</desc>
    <defs>
        <polygon id="path-1" points="0 26.9251667 51.6828 26.9251667 51.6828 0 0 0"></polygon>
    </defs>
    <g id="Welcome" stroke="none" stroke-width="1" fill="none" fill-rule="evenodd">
        <g id="Tablet-Portrait-Copy" transform="translate(-297.000000, -1884.000000)">
            <g id="Group-Copy-3" transform="translate(297.000000, 1884.000000)">
                <g id="Page-1" opacity="0.400000006" transform="translate(69.500000, 0.000000)">
                    <path d="M48.1416,9.81935714 L49.96888,9.81935714 C50.19664,9.81935714 50.3776,10.0036429 50.3776,10.2268333 L50.3776,13.1303571 C50.3776,13.3596905 50.19664,13.5419286 49.96888,13.5419286 L48.1416,13.5419286 L48.1416,9.81935714 L48.1416,9.81935714 Z" id="Fill-1" fill="#E02E47"></path>
                    <g id="Group-5" transform="translate(47.840000, 8.496595)" fill="#FFFFFF">
                        <path d="M2.12888,6.33430952 L0.3016,6.33430952 L0.3016,3.76045238 L1.22928,3.76045238 L1.22928,2.60969048 L0.3016,2.60969048 L0.3016,0.0368571429 L2.12888,0.0368571429 C3.07528,0.0368571429 3.8428,0.79652381 3.8428,1.7302381 L3.8428,4.6337619 C3.84384,5.57157143 3.07528,6.33430952 2.12888,6.33430952" id="Fill-3"></path>
                    </g>
                    <polygon id="Fill-6" fill="#E02E47" points="8.12552 14.8247619 7.04912 14.8247619 0 11.6785952 7.05016 8.53345238 8.12552 8.53345238 8.12552 11.1062857 7.61488 11.1062857 6.32944 11.6785952 7.61488 12.2519286 8.12552 12.2519286"></polygon>
                    <mask id="mask-2" fill="white">
                        <use xlink:href="#path-1"></use>
                    </mask>
                    <g id="Clip-9"></g>
                    <polygon id="Fill-8" fill="#E02E47" mask="url(#mask-2)" points="9.5836 14.5862143 18.6628 14.5862143 18.6628 8.77711905 9.5836 8.77711905"></polygon>
                    <path d="M22.3548,26.9251667 L19.74024,26.9251667 L19.74024,24.9655952 C18.09912,23.5271429 17.16728,21.5020476 17.16728,19.3151905 L17.16728,8.38602381 L17.28792,5.90840476 C17.28584,3.97033333 18.93944,2.34452381 20.97264,2.34452381 C21.68816,2.34452381 22.28304,2.45304762 22.7708,2.64142857 C23.44264,1.7517381 24.52112,1.17328571 25.7296,1.17328571 C26.34944,1.17328571 26.92976,1.3227619 27.44144,1.58690476 C28.10704,0.628619048 29.224,0 30.4876,0 C31.84376,0 33.03144,0.724857143 33.67208,1.80088095 C34.18584,1.55004762 34.75784,1.40671429 35.35168,1.40671429 C37.42856,1.40671429 39.11856,3.07040476 39.11856,5.11392857 L39.11856,15.1257619 L36.50504,15.1257619 L36.50504,5.11392857 C36.50504,4.48940476 35.98608,3.97954762 35.35168,3.97954762 C34.70168,3.97954762 34.17544,4.56516667 34.17544,4.94807143 L31.56088,4.94807143 L31.56088,3.62838095 C31.56088,3.04685714 31.07936,2.57283333 30.4876,2.57283333 C29.89792,2.57283333 29.4164,3.04685714 29.4164,3.62838095 L29.4164,4.80166667 L26.80184,4.80166667 C26.80184,4.21809524 26.3224,3.74407143 25.73064,3.74407143 C25.14096,3.74407143 24.66048,4.21809524 24.66048,4.80166667 L24.66048,5.3852381 L22.048,5.38421429 C22.048,5.20709524 22.0428,4.91428571 20.97576,4.91428571 C20.384,4.91428571 19.90144,5.38830952 19.90144,5.97085714 L19.78184,8.44642857 L19.78392,19.3141667 C19.78392,20.903119 20.53168,22.3640952 21.83376,23.3234048 L22.35792,23.709381 L22.3548,26.9251667 Z" id="Fill-10" fill="#E02E47" mask="url(#mask-2)"></path>
                    <path d="M41.50848,4.27133333 C38.78368,4.27133333 36.56744,6.45102381 36.56744,9.13340476 L36.56744,15.1267857 L39.18096,15.1267857 L39.18096,9.13340476 C39.18096,7.90278571 40.17312,6.89330952 41.4128,6.84519048 L41.4128,8.78019048 L41.4128,9.91354762 L41.4128,10.9158571 L41.4128,13.9678333 L41.4128,15.5127619 L34.8868,22.9896429 C34.2524,23.5660476 33.47656,23.977619 32.63728,24.1772619 L31.64096,24.4158095 L31.64096,26.9251667 L34.25448,26.9251667 L34.25448,26.364119 C35.17072,26.0078333 36.01104,25.4815952 36.73176,24.8120238 L43.94416,16.5590952 L43.94416,4.27030952 L41.50848,4.27133333 Z" id="Fill-11" fill="#E02E47" mask="url(#mask-2)"></path>
                    <polygon id="Fill-12" fill="#E02E47" mask="url(#mask-2)" points="38.96984 14.5862143 46.66168 14.5862143 46.66168 8.77711905 38.96984 8.77711905"></polygon>
                </g>
                <path d="M127.5,11.5 L190.785069,11.5" id="Line" stroke="#E02E47" stroke-linecap="square" opacity="0.4"></path>
                <path d="M0.5,11.5 L63.7850685,11.5" id="Line-Copy-2" stroke="#E02E47" stroke-linecap="square" opacity="0.4"></path>
            </g>
        </g>
    </g>
</svg>