<?xml version="1.0" encoding="UTF-8" standalone="no"?>
<svg width="394px" height="302px" viewBox="0 0 394 302" version="1.1" xmlns="http://www.w3.org/2000/svg" xmlns:xlink="http://www.w3.org/1999/xlink">
    <!-- Generator: Sketch 3.8.3 (29802) - http://www.bohemiancoding.com/sketch -->
    <title>Page 1 Copy</title>
    <desc>Created with Sketch.</desc>
    <defs>
        <polygon id="path-1" points="0 301.871426 393.60999 301.871426 393.60999 0 0 0"></polygon>
    </defs>
    <g id="Welcome" stroke="none" stroke-width="1" fill="none" fill-rule="evenodd">
        <g id="Tablet-Portrait-Copy" transform="translate(-44.000000, -99.000000)">
            <g id="Page-1-Copy" transform="translate(44.000000, 99.000000)">
                <path d="M330.686095,118.588622 L333.191736,118.588622 L333.191736,112.181837 C335.119842,110.516352 336.215062,108.14321 336.215062,105.573718 L336.215062,88.5401208 L333.707427,88.5401208 L333.707427,105.573718 C333.707427,107.561137 332.789756,109.386094 331.188819,110.581137 L330.686095,110.95789 L330.686095,118.588622 L330.686095,118.588622 Z" id="Fill-1" fill="#444243"></path>
                <path d="M316.703983,118.588622 L319.210621,118.588622 L319.210621,111.877844 L318.253051,111.644616 C317.214687,111.393448 316.256119,110.87616 315.473107,110.14857 L307.723775,101.138405 L307.723775,95.4283122 L307.788611,95.4063848 L307.723775,94.4415795 L307.723775,90.4109261 L307.892347,90.4109261 C309.556125,90.4109261 310.911684,91.7644442 310.911684,93.4269393 L310.911684,99.2008205 L310.969537,100.627098 L313.475178,100.577263 L313.489142,88.5421142 L310.984499,88.5391241 L310.984499,88.8540812 C310.10174,88.2560614 309.036444,87.9072165 307.892347,87.9072165 L305.287957,87.9072165 L305.279978,88.01187 L305.217137,88.0168535 L305.20018,89.0873089 L305.131355,90.2664046 L305.217137,90.2763716 L305.217137,93.5953815 L305.174246,93.6073419 L305.217137,94.6229789 L305.217137,102.067329 L313.703598,111.923692 C314.566408,112.742979 315.590808,113.37688 316.703983,113.78752 L316.703983,118.588622 Z" id="Fill-3" fill="#444243"></path>
                <path d="M328.103749,88.6389934 L330.60939,88.6389934 L330.60939,78.4995677 C330.60939,77.645396 331.305623,76.9506964 332.160453,76.9506964 C333.014286,76.9506964 333.707527,77.645396 333.707527,78.4995677 L333.707527,88.6389934 L336.215162,88.6389934 L336.215162,78.4995677 C336.215162,76.264967 334.396777,74.4469868 332.160453,74.4469868 C329.924129,74.4469868 328.103749,76.264967 328.103749,78.4995677 L328.103749,88.6389934 Z" id="Fill-5" fill="#444243"></path>
                <path d="M322.401422,88.6389934 L324.90806,88.6389934 L324.90806,72.4196997 C324.90806,71.5645314 325.603296,70.8708284 326.457129,70.8708284 C327.310962,70.8708284 328.005199,71.5645314 328.005199,72.4196997 L328.005199,88.6389934 L330.511837,88.6389934 L330.511837,72.4196997 C330.511837,70.1831056 328.693453,68.3671188 326.457129,68.3671188 C324.220805,68.3671188 322.401422,70.1831056 322.401422,72.4196997 L322.401422,88.6389934 Z" id="Fill-7" fill="#444243"></path>
                <path d="M316.699095,88.6389934 L319.205733,88.6389934 L319.205733,69.5521947 C319.205733,68.6970264 319.899971,68.0043201 320.753804,68.0043201 C321.609632,68.0043201 322.305865,68.6970264 322.305865,69.5521947 L322.305865,88.6389934 L324.811505,88.6389934 L324.811505,69.5521947 C324.811505,67.3156007 322.991126,65.4996139 320.753804,65.4996139 C318.519475,65.4996139 316.699095,67.3156007 316.699095,69.5521947 L316.699095,88.6389934 Z" id="Fill-9" fill="#444243"></path>
                <path d="M310.997766,88.6389934 L313.503406,88.6389934 L313.503406,74.3971518 C313.503406,73.5439769 314.199639,72.8482805 315.054469,72.8482805 C315.908302,72.8482805 316.60254,73.5439769 316.60254,74.3971518 L316.60254,88.6389934 L319.109178,88.6389934 L319.109178,74.3971518 C319.109178,72.1635479 317.288798,70.3455677 315.054469,70.3455677 C312.817148,70.3455677 310.997766,72.1635479 310.997766,74.3971518 L310.997766,88.6389934 Z" id="Fill-11" fill="#444243"></path>
                <polygon id="Fill-13" fill="#BF3148" points="231.455549 73.0680528 242.61323 73.0680528 242.61323 61.9169769 231.455549 61.9169769"></polygon>
                <mask id="mask-2" fill="white">
                    <use xlink:href="#path-1"></use>
                </mask>
                <g id="Clip-16"></g>
                <polygon id="Fill-15" fill="#444243" mask="url(#mask-2)" points="254.175884 66.6702376 256.682522 66.6702376 256.682522 64.1655314 254.175884 64.1655314"></polygon>
                <path d="M242.440668,66.6702376 L245.374223,66.6702376 L245.374223,64.1655314 L242.440668,64.1655314 L242.440668,66.6702376 Z M248.307777,66.6702376 L251.241332,66.6702376 L251.241332,64.1655314 L248.307777,64.1655314 L248.307777,66.6702376 Z" id="Fill-17" fill="#444243" mask="url(#mask-2)"></path>
                <polygon id="Fill-18" fill="#444243" mask="url(#mask-2)" points="236.999478 66.6702376 239.506116 66.6702376 239.506116 64.1655314 236.999478 64.1655314"></polygon>
                <path d="M236.999478,55.3716502 L239.506116,55.3716502 L239.506116,52.438363 L236.999478,52.438363 L236.999478,55.3716502 Z M236.999478,61.2332409 L239.506116,61.2332409 L239.506116,58.3009505 L236.999478,58.3009505 L236.999478,61.2332409 Z" id="Fill-19" fill="#444243" mask="url(#mask-2)"></path>
                <polygon id="Fill-20" fill="#444243" mask="url(#mask-2)" points="236.999478 49.5070693 239.506116 49.5070693 239.506116 47.002363 236.999478 47.002363"></polygon>
                <path d="M242.440668,49.5070693 L245.374223,49.5070693 L245.374223,47.002363 L242.440668,47.002363 L242.440668,49.5070693 Z M248.307777,49.5070693 L251.241332,49.5070693 L251.241332,47.002363 L248.307777,47.002363 L248.307777,49.5070693 Z" id="Fill-21" fill="#444243" mask="url(#mask-2)"></path>
                <polygon id="Fill-22" fill="#444243" mask="url(#mask-2)" points="254.175884 49.5070693 256.682522 49.5070693 256.682522 47.002363 254.175884 47.002363"></polygon>
                <path d="M254.175884,55.3696568 L256.682522,55.3696568 L256.682522,52.438363 L254.175884,52.438363 L254.175884,55.3696568 Z M254.175884,61.2332409 L256.682522,61.2332409 L256.682522,58.3009505 L254.175884,58.3009505 L254.175884,61.2332409 Z" id="Fill-23" fill="#444243" mask="url(#mask-2)"></path>
                <path d="M219.95833,134.184481 C219.95833,147.802388 231.003297,158.83984 244.632705,158.83984 C258.261115,158.83984 269.307079,147.802388 269.307079,134.184481 L269.307079,120.683187 C269.307079,107.065279 258.261115,96.0278271 244.632705,96.0278271 C231.003297,96.0278271 219.95833,107.065279 219.95833,120.683187 L219.95833,134.184481 Z" id="Fill-25" fill="#FFFFFF" mask="url(#mask-2)"></path>
                <path d="M221.211948,120.683286 L221.211948,134.18458 C221.211948,147.089848 231.716288,157.588085 244.632505,157.588085 C257.547726,157.588085 268.05406,147.089848 268.05406,134.18458 L268.05406,120.683286 C268.05406,107.779016 257.547726,97.2787848 244.632505,97.2787848 C231.716288,97.2787848 221.211948,107.779016 221.211948,120.683286 M218.70531,134.18458 L218.70531,120.683286 C218.70531,106.398587 230.335791,94.7750752 244.632505,94.7750752 C258.930217,94.7750752 270.561695,106.398587 270.561695,120.683286 L270.561695,134.18458 C270.561695,148.471273 258.930217,160.092791 244.632505,160.092791 C230.335791,160.092791 218.70531,148.471273 218.70531,134.18458" id="Fill-26" fill="#444243" mask="url(#mask-2)"></path>
                <path d="M248.241047,140.38465 L248.241047,138.209851 C249.201609,138.209851 249.984621,137.429436 249.984621,136.468617 C249.984621,135.507799 249.201609,134.72838 248.241047,134.72838 C247.277492,134.72838 246.494479,135.507799 246.494479,136.468617 L244.319998,136.468617 C244.319998,134.310762 246.078535,132.553581 248.241047,132.553581 C250.401563,132.553581 252.159102,134.310762 252.159102,136.468617 C252.159102,138.628465 250.401563,140.38465 248.241047,140.38465" id="Fill-27" fill="#444243" mask="url(#mask-2)"></path>
                <polygon id="Fill-28" fill="#444243" mask="url(#mask-2)" points="243.966795 136.469116 246.141276 136.469116 246.141276 126.378528 243.966795 126.378528"></polygon>
                <path d="M266.213032,126.828937 C268.832384,127.101036 273.105539,129.290785 273.105539,131.981874 L273.105539,138.200283 C273.105539,140.893366 268.832384,143.084112 266.213032,143.354217 L266.213032,126.828937 Z" id="Fill-29" fill="#FFFFFF" mask="url(#mask-2)"></path>
                <path d="M267.465653,141.817406 C269.627167,141.153604 271.852519,139.574832 271.852519,138.200383 L271.852519,131.981974 C271.852519,130.610515 269.627167,129.031743 267.465653,128.366944 L267.465653,141.817406 Z M264.958018,125.43864 L266.342504,125.583162 C269.219203,125.884165 274.360154,128.278238 274.360154,131.981974 L274.360154,138.200383 C274.360154,141.909102 269.219203,144.302178 266.341506,144.599195 L264.958018,144.743716 L264.958018,125.43864 Z" id="Fill-30" fill="#444243" mask="url(#mask-2)"></path>
                <polygon id="Fill-31" fill="#444243" mask="url(#mask-2)" points="252.839276 128.882238 257.336861 128.882238 257.336861 126.377531 252.839276 126.377531"></polygon>
                <polygon id="Fill-32" fill="#444243" mask="url(#mask-2)" points="234.163676 128.882238 238.661261 128.882238 238.661261 126.377531 234.163676 126.377531"></polygon>
                <path d="M249.94183,147.098718 C248.758832,149.151919 246.820751,150.495471 244.627318,150.495471 C242.429896,150.495471 240.492812,149.151919 239.310812,147.098718" id="Fill-33" fill="#FFFFFF" mask="url(#mask-2)"></path>
                <path d="M244.627119,151.747425 C247.182633,151.747425 249.575559,150.243405 251.026876,147.723749 L248.856385,146.47289 C247.856922,148.207148 246.274937,149.241722 244.627119,149.241722 C242.977306,149.241722 241.395322,148.207148 240.395858,146.47289 L238.222375,147.723749 C239.676684,150.243405 242.06961,151.747425 244.627119,151.747425" id="Fill-34" fill="#444243" mask="url(#mask-2)"></path>
                <path d="M221.024025,102.229691 L223.891747,102.229691 C222.934177,100.563209 222.635934,98.8488858 223.222446,97.3388858 C224.673762,93.6022587 230.901954,92.5308066 237.135134,94.9458099 C237.837352,95.2179089 238.503661,95.5278825 239.143038,95.8587868 C238.751033,94.5291894 238.739063,93.2195261 239.206876,92.0165096 C240.929504,87.5821927 248.320744,86.310404 255.718967,89.1769122 C263.024425,92.0095327 267.59283,97.8143116 266.049747,102.229691 L268.232208,102.229691 C271.098932,102.229691 273.421038,104.551005 273.421038,107.413526 L273.421038,129.043902 C273.332263,129.26517 273.247478,129.48843 273.157706,129.702721 L266.191387,129.702721 L266.191387,110.834199 C266.191387,110.569077 266.160466,110.310932 266.150491,110.049797 C259.640015,111.418265 252.336552,112.185724 244.629114,112.185724 C236.921676,112.185724 229.620208,111.418265 223.107737,110.049797 C223.095767,110.310932 223.066841,110.569077 223.066841,110.834199 L223.066841,129.702721 L216.101519,129.702721 C216.008754,129.48544 215.926962,129.26218 215.83719,129.041909 L215.83719,107.413526 C215.83719,104.551005 218.160294,102.229691 221.024025,102.229691" id="Fill-35" fill="#BF3148" mask="url(#mask-2)"></path>
                <path d="M221.81402,110.834 C221.81402,110.642634 221.82599,110.453261 221.838957,110.265881 C221.845939,110.176178 221.852922,110.086475 221.855914,109.996772 L221.917757,108.519663 L223.366081,108.82266 C230.033159,110.225017 237.187003,110.935663 244.629114,110.935663 C252.072223,110.935663 259.226066,110.225017 265.892147,108.82266 L267.347453,108.51767 L267.403311,110.002752 C267.406304,110.094449 267.413286,110.187142 267.421266,110.277842 C267.432238,110.463228 267.444208,110.647617 267.444208,110.834 L267.444208,128.451663 L272.168218,128.451663 L272.168218,107.413327 C272.168218,105.246502 270.403696,103.481347 268.232208,103.481347 L264.286223,103.481347 L264.866749,101.817855 C266.180415,98.0533201 261.874344,92.9073597 255.266116,90.3448449 C252.821322,89.3969835 250.294734,88.8966403 247.959661,88.8966403 C244.078511,88.8966403 241.243706,90.2322178 240.374911,92.4708053 C240.025797,93.367835 240.015823,94.3884554 240.345985,95.5067525 L241.176876,98.3274125 L238.565504,96.9709043 C237.913159,96.6310297 237.296724,96.3519538 236.682284,96.1127459 C234.644456,95.3233597 232.540795,94.9067393 230.597727,94.9067393 C227.459691,94.9067393 225.082724,96.0120792 224.391478,97.7901914 C223.855838,99.1706205 224.41442,100.627795 224.978987,101.606554 L226.058248,103.481347 L221.024025,103.481347 C218.854532,103.481347 217.09001,105.246502 217.09001,107.413327 L217.09001,128.451663 L221.81402,128.451663 L221.81402,110.834 Z M214.950441,130.198878 C214.886603,130.04738 214.825757,129.895881 214.767904,129.743386 L214.58437,129.285901 L214.58437,107.413327 C214.58437,103.865076 217.474035,100.977637 221.024025,100.977637 L221.977605,100.977637 C221.538719,99.5483696 221.560663,98.1569769 222.05441,96.8861848 C223.145641,94.0774851 226.337539,92.4030297 230.597727,92.4030297 C232.848015,92.4030297 235.264881,92.8784554 237.590977,93.7794719 L237.598957,93.7834587 C237.615914,93.0130099 237.762542,92.2714653 238.039838,91.5638086 C239.294653,88.3265281 243.004238,86.3929307 247.959661,86.3929307 C250.601954,86.3929307 253.441747,86.9510825 256.171818,88.0105743 C263.310699,90.7774125 267.951919,96.2064356 267.580861,100.977637 L268.232208,100.977637 C271.784192,100.977637 274.674856,103.865076 274.674856,107.413327 L274.674856,129.282911 L274.508278,129.703518 C274.443443,129.869967 274.37761,130.035419 274.307787,130.197881 L273.982613,130.955373 L264.93757,130.955373 L264.93757,111.570561 C258.525843,112.810455 251.703159,113.438376 244.629114,113.438376 C237.557063,113.438376 230.731387,112.810455 224.319661,111.570561 L224.319661,130.955373 L215.27761,130.955373 L214.950441,130.198878 Z" id="Fill-36" fill="#444243" mask="url(#mask-2)"></path>
                <polygon id="Fill-37" fill="#444243" mask="url(#mask-2)" points="247.43599 170.828343 249.942628 170.828343 249.942628 162.879663 247.43599 162.879663"></polygon>
                <path d="M223.101752,131.696618 C223.101752,129.010513 220.921286,126.828737 218.229119,126.828737 L217.824147,126.828737 C215.133975,126.828737 212.949519,129.010513 212.949519,131.696618 L212.949519,137.609041 C212.949519,140.298137 215.133975,142.476922 217.824147,142.476922 L218.229119,142.476922 C220.222061,142.476922 221.930724,141.283873 222.6888,139.575529" id="Fill-38" fill="#FFFFFF" mask="url(#mask-2)"></path>
                <path d="M217.824147,143.728976 L218.229119,143.728976 C220.653965,143.728976 222.85438,142.298712 223.833894,140.082052 L221.542709,139.068409 C220.962182,140.379069 219.663478,141.225267 218.229119,141.225267 L217.824147,141.225267 C215.827215,141.225267 214.203337,139.60264 214.203337,137.608244 L214.203337,131.696818 C214.203337,129.703418 215.827215,128.081788 217.824147,128.081788 L218.229119,128.081788 C220.224056,128.081788 221.846937,129.703418 221.846937,131.696818 L224.353575,131.696818 C224.353575,128.321993 221.607544,125.576085 218.229119,125.576085 L217.824147,125.576085 C214.444724,125.576085 211.696699,128.321993 211.696699,131.696818 L211.696699,137.608244 C211.696699,140.984065 214.444724,143.728976 217.824147,143.728976" id="Fill-39" fill="#444243" mask="url(#mask-2)"></path>
                <path d="M179.858905,104.907325 C179.858905,107.595424 177.678439,109.777199 174.98727,109.777199 L174.580303,109.777199 C171.888136,109.777199 169.709665,107.595424 169.709665,104.907325 L169.709665,95.9828759 C169.709665,93.2947769 171.888136,91.1149947 174.580303,91.1149947 L174.98727,91.1149947 C177.678439,91.1149947 179.858905,93.2947769 179.858905,95.9828759 L179.858905,104.907325 Z" id="Fill-40" fill="#FFFFFF" mask="url(#mask-2)"></path>
                <path d="M174.580303,92.3668495 C172.586364,92.3668495 170.962485,93.9894766 170.962485,95.9828759 L170.962485,104.907325 C170.962485,106.902717 172.586364,108.525345 174.580303,108.525345 L174.98727,108.525345 C176.982207,108.525345 178.605088,106.902717 178.605088,104.907325 L178.605088,95.9828759 C178.605088,93.9894766 176.982207,92.3668495 174.98727,92.3668495 L174.580303,92.3668495 Z M174.98727,111.029054 L174.580303,111.029054 C171.202875,111.029054 168.455847,108.283147 168.455847,104.907325 L168.455847,95.9828759 C168.455847,92.6090475 171.202875,89.8631399 174.580303,89.8631399 L174.98727,89.8631399 C178.364698,89.8631399 181.111726,92.6090475 181.111726,95.9828759 L181.111726,104.907325 C181.111726,108.283147 178.364698,111.029054 174.98727,111.029054 L174.98727,111.029054 Z" id="Fill-41" fill="#444243" mask="url(#mask-2)"></path>
                <path d="M190.838837,237.436287 L188.332199,237.436287 L188.332199,146.663858 C188.332199,141.229851 183.26107,136.808492 177.027891,136.808492 L121.910782,136.808492 C115.675607,136.808492 110.602483,141.229851 110.602483,146.663858 L110.602483,156.98269 L108.096843,156.98269 L108.096843,146.663858 C108.096843,139.849422 114.293116,134.303785 121.910782,134.303785 L177.027891,134.303785 C184.643562,134.303785 190.838837,139.849422 190.838837,146.663858 L190.838837,237.436287 Z" id="Fill-43" fill="#444243" mask="url(#mask-2)"></path>
                <polygon id="Fill-44" fill="#FFFFFF" mask="url(#mask-2)" points="159.772187 135.671756 149.220967 141.759597 138.669746 135.671756 138.669746 112.649987 149.220967 112.649987 159.772187 112.649987"></polygon>
                <path d="M139.922168,134.94855 L149.220568,140.313785 L158.519965,134.94855 L158.519965,113.903237 L139.922168,113.903237 L139.922168,134.94855 Z M149.220568,143.206207 L137.41553,136.393765 L137.41553,111.398531 L161.025606,111.398531 L161.025606,136.393765 L149.220568,143.206207 Z" id="Fill-45" fill="#444243" mask="url(#mask-2)"></path>
                <path d="M174.142015,105.727908 C174.142015,119.345815 163.095053,130.382271 149.468638,130.382271 C135.841225,130.382271 124.793266,119.345815 124.793266,105.727908 L124.793266,77.5850957 C124.793266,63.9701782 135.841225,67.3828779 149.468638,67.3828779 L149.468638,61.3518482 C163.095053,61.3518482 174.142015,72.3893003 174.142015,86.0042178 L174.142015,105.727908 Z" id="Fill-46" fill="#FFFFFF" mask="url(#mask-2)"></path>
                <path d="M132.275575,65.2262191 C132.275575,61.0769584 135.642031,57.7140937 139.795489,57.7140937 L167.009418,57.7140937 C171.160882,57.7140937 174.527337,61.0769584 174.527337,65.2262191 L174.527337,77.0630244 C174.527337,81.2112884 171.160882,84.5741531 167.009418,84.5741531 L139.795489,84.5741531 C135.642031,84.5741531 132.275575,81.2112884 132.275575,77.0630244 L132.275575,65.2262191 Z" id="Fill-47" fill="#BF3148" mask="url(#mask-2)"></path>
                <polygon id="Fill-48" fill="#BF3148" mask="url(#mask-2)" points="136.858743 151.661709 149.177477 143.526646 137.830277 136.980323"></polygon>
                <polygon id="Fill-49" fill="#BF3148" mask="url(#mask-2)" points="161.560648 151.662706 149.242911 143.526646 160.588116 136.980323"></polygon>
                <path d="M124.793665,91.1657267 C122.343883,91.4208818 118.350019,93.468103 118.350019,95.9827762 L118.350019,104.907225 C118.350019,107.423892 122.343883,109.471113 124.793665,109.726268 L124.793665,91.1657267 Z" id="Fill-50" fill="#FFFFFF" mask="url(#mask-2)"></path>
                <path d="M123.539947,92.7201795 C121.601866,93.3540805 119.603937,94.7793611 119.603937,95.9823776 L119.603937,104.906826 C119.603937,106.111836 121.601866,107.537117 123.539947,108.172015 L123.539947,92.7201795 Z M126.045587,111.114272 L124.662099,110.970747 C121.947987,110.688681 117.097299,108.421189 117.097299,104.906826 L117.097299,95.9823776 C117.097299,92.4700079 121.947987,90.2025162 124.662099,89.9204502 L126.045587,89.7769254 L126.045587,111.114272 Z" id="Fill-51" fill="#444243" mask="url(#mask-2)"></path>
                <path d="M144.251081,115.12838 C145.435075,117.182578 147.373156,118.528123 149.568584,118.528123 C151.764012,118.528123 153.700098,117.182578 154.884093,115.12838" id="Fill-52" fill="#FFFFFF" mask="url(#mask-2)"></path>
                <path d="M149.568584,119.779978 C147.014068,119.779978 144.619146,118.273964 143.164837,115.754308 L145.336326,114.50345 C146.337784,116.238704 147.919769,117.275271 149.568584,117.275271 C151.215405,117.275271 152.797389,116.238704 153.79785,114.50345 L155.969339,115.754308 C154.516027,118.273964 152.123101,119.779978 149.568584,119.779978" id="Fill-53" fill="#444243" mask="url(#mask-2)"></path>
                <path d="M152.947708,92.9080574 L152.947708,108.416704 C152.947708,109.417391 152.135769,110.231694 151.131318,110.231694 L147.802766,110.231694 C146.80031,110.231694 145.986376,109.417391 145.986376,108.416704 L145.986376,107.505721" id="Fill-54" fill="#FFFFFF" mask="url(#mask-2)"></path>
                <path d="M147.802567,111.48325 L151.131118,111.48325 C152.823822,111.48325 154.200329,110.106808 154.200329,108.416405 L154.200329,92.9077584 L151.694688,92.9077584 L151.694688,108.416405 C151.694688,108.726379 151.441331,108.978544 151.131118,108.978544 L147.802567,108.978544 C147.491356,108.978544 147.239994,108.726379 147.239994,108.416405 L147.239994,107.506418 L144.734354,107.506418 L144.734354,108.416405 C144.734354,110.106808 146.111858,111.48325 147.802567,111.48325" id="Fill-55" fill="#444243" mask="url(#mask-2)"></path>
                <path d="M139.796586,99.1724145 C138.068971,99.1724145 136.341356,98.5195762 135.026693,97.202936 L136.7573,95.473662 C138.434045,97.1481175 141.158131,97.1461241 142.830885,95.473662 L144.561493,97.202936 C143.249822,98.5155894 141.522207,99.1724145 139.796586,99.1724145" id="Fill-56" fill="#444243" mask="url(#mask-2)"></path>
                <path d="M162.70614,99.1724145 C160.98052,99.1724145 159.251907,98.5155894 157.936247,97.2009426 L159.668849,95.473662 C161.342601,97.1451274 164.067685,97.1461241 165.744429,95.4726653 L167.475036,97.202936 C166.159376,98.5155894 164.431761,99.1724145 162.70614,99.1724145" id="Fill-57" fill="#444243" mask="url(#mask-2)"></path>
                <path d="M166.649332,85.061938 L139.311717,85.061938 C134.548806,85.061938 130.673641,81.188763 130.673641,76.4285254 L130.673641,72.3739512 L133.483509,72.3739512 L133.483509,76.4285254 C133.483509,79.6428818 136.100866,82.254235 139.311717,82.254235 L166.649332,82.254235 C169.862178,82.254235 172.478537,79.6428818 172.478537,76.4285254 L172.478537,66.652895 L152.286785,66.652895 L152.286785,63.8451921 L175.289403,63.8451921 L175.289403,76.4285254 C175.289403,81.188763 171.412244,85.061938 166.649332,85.061938" id="Fill-58" fill="#444243" mask="url(#mask-2)"></path>
                <path d="M164.567715,78.4432541 L143.683721,78.4432541 C137.210151,78.4432541 137.210151,74.3946601 137.210151,71.9746733 L140.021017,71.9746733 C140.021017,74.4893465 140.021017,75.6355512 143.683721,75.6355512 L164.567715,75.6355512 L164.567715,78.4432541 Z" id="Fill-59" fill="#444243" mask="url(#mask-2)"></path>
                <path d="M133.507848,67.3831769 L130.696982,67.3831769 C130.696982,61.4428469 135.533706,56.6098502 141.479615,56.6098502 L166.179924,56.6098502 L166.179924,59.4195465 L141.479615,59.4195465 C137.083772,59.4195465 133.507848,62.9917182 133.507848,67.3831769" id="Fill-60" fill="#444243" mask="url(#mask-2)"></path>
                <path d="M126.062844,88.2117083 L123.540246,88.2117083 L123.540246,74.3456224 C123.540246,70.1216092 126.982509,66.6839921 131.207785,66.6839921 L132.276074,66.6839921 L132.276074,69.2066389 L131.207785,69.2066389 C128.370985,69.2066389 126.062844,71.5120053 126.062844,74.3456224 L126.062844,88.2117083 Z" id="Fill-61" fill="#444243" mask="url(#mask-2)"></path>
                <path d="M173.615053,76.5919842 C173.319802,77.8548026 172.871939,79.2750997 172.20962,80.4193109 C172.650501,82.2103802 172.888896,84.0801888 172.888896,86.0038191 L172.888896,105.727509 C172.888896,118.63178 162.381564,129.131014 149.468339,129.131014 C136.553118,129.131014 126.045787,118.63178 126.045787,105.727509 L126.045787,86.9058323 L123.540146,86.9058323 L123.540146,105.727509 C123.540146,120.012209 135.171625,131.63572 149.468339,131.63572 C163.764055,131.63572 175.394536,120.012209 175.394536,105.727509 L175.394536,86.0038191 C175.394536,82.6848092 174.760146,79.5113175 173.615053,76.5919842" id="Fill-62" fill="#444243" mask="url(#mask-2)"></path>
                <path d="M200.483359,51.1965749 L194.532463,53.6733736 L201.137698,69.5388389 L217.016397,62.937697 L214.453901,56.7770964 C214.423977,56.7461987 214.396048,56.7222779 214.365126,56.6983571 L214.352159,56.6913802 C214.322235,56.6694528 214.291313,56.6475254 214.259394,56.6315782 L214.252412,56.6275914 C214.190569,56.5937036 214.127729,56.5717762 214.061896,56.555829 C214.049926,56.5538356 214.039951,56.5488521 214.029977,56.545862 C214.008032,56.5408785 213.983096,56.5388851 213.960154,56.5378884 C213.935217,56.5348983 213.910281,56.5309116 213.885344,56.5309116 C213.865394,56.5299149 213.844448,56.5309116 213.825496,56.532905 C213.796569,56.532905 213.763653,56.535895 213.733729,56.5408785 C213.717769,56.5448653 213.702807,56.5448653 213.683855,56.5488521 C213.637972,56.5598158 213.591091,56.5737696 213.545207,56.5917102 C213.29983,56.6943703 213.13425,56.9006871 213.065425,57.136905 C212.846979,57.9492152 212.266453,58.6558752 211.430574,59.0057168 C209.991227,59.6047333 208.341415,58.9229908 207.740939,57.4867465 C207.143455,56.0495056 207.824726,54.4009644 209.263075,53.8019479 C210.101946,53.4550964 211.011637,53.5408125 211.742782,53.9594264 C211.959232,54.0780337 212.223562,54.1059413 212.467941,54.0032812 C212.512827,53.9843439 212.554721,53.9594264 212.595617,53.9345089 C212.610579,53.9255386 212.623546,53.9145749 212.635516,53.9056046 C212.66145,53.8866673 212.683394,53.86773 212.709329,53.8487927 C212.723293,53.8328455 212.737258,53.8208851 212.750225,53.8059347 C212.767182,53.7869974 212.783141,53.7670634 212.800098,53.7471294 C212.812068,53.7291888 212.826032,53.7102515 212.841992,53.6933076 C212.846979,53.6833406 212.850969,53.6733736 212.855956,53.6634066 C212.892863,53.605598 212.920792,53.5447993 212.938746,53.4780205 C212.939744,53.4740337 212.941739,53.473037 212.941739,53.473037 C212.954706,53.4351624 212.960691,53.3982845 212.967673,53.3624033 C212.967673,53.3624033 212.967673,53.3504429 212.969668,53.3454594 C212.974655,53.3085815 212.975653,53.2707069 212.97665,53.2318356 L210.410164,47.0692416 L204.456275,49.547037 C204.053298,49.6636508 203.61541,49.467301 203.44983,49.0686211 C203.346093,48.8244297 203.373025,48.5632944 203.491724,48.3470106 C203.909663,47.6144363 203.998437,46.7054462 203.650321,45.8652284 C203.05184,44.4299809 201.400032,43.7502317 199.963678,44.3482515 C198.524331,44.9462713 197.842063,46.5958092 198.441541,48.0310568 C198.791653,48.8712746 199.498858,49.4463703 200.312792,49.6676376 C200.548194,49.7344165 200.75467,49.901862 200.858407,50.1480469 C201.023987,50.5467267 200.85342,50.9932482 200.483359,51.1965749" id="Fill-63" fill="#BF3148" mask="url(#mask-2)"></path>
                <polygon id="Fill-64" fill="#BF3148" mask="url(#mask-2)" points="384.218227 165.684675 386.287974 169.874801 390.917224 170.547573 387.567726 173.809771 388.357721 178.417514 384.218227 176.242715 380.078733 178.417514 380.869726 173.809771 377.518232 170.547573 382.149477 169.874801"></polygon>
                <path d="M384.218227,174.827202 L386.693943,176.129888 L386.222141,173.373017 L388.22406,171.422476 L385.456085,171.020806 L384.218227,168.514106 L382.980369,171.020806 L380.210399,171.422476 L382.21531,173.373017 L381.74251,176.129888 L384.218227,174.827202 Z M378.414956,180.705737 L379.523143,174.247123 L374.825067,169.673268 L381.316591,168.731387 L384.218227,162.855842 L387.12086,168.731387 L393.610389,169.673268 L388.914308,174.247123 L390.022495,180.705737 L384.218227,177.656832 L378.414956,180.705737 Z" id="Fill-65" fill="#BF3148" mask="url(#mask-2)"></path>
                <polygon id="Fill-66" fill="#444243" mask="url(#mask-2)" points="206.139803 18.7618746 218.575241 18.7618746 218.575241 16.2561716 206.139803 16.2561716"></polygon>
                <polygon id="Fill-67" fill="#BF3148" mask="url(#mask-2)" points="197.718177 18.7618746 202.280597 18.7618746 202.280597 16.2561716 197.718177 16.2561716"></polygon>
                <polygon id="Fill-68" fill="#444243" mask="url(#mask-2)" points="206.139803 11.0145281 218.575241 11.0145281 218.575241 8.50982178 206.139803 8.50982178"></polygon>
                <polygon id="Fill-69" fill="#444243" mask="url(#mask-2)" points="197.718177 11.0145281 202.280597 11.0145281 202.280597 8.50982178 197.718177 8.50982178"></polygon>
                <path d="M291.498456,6.2593736 C289.73194,6.2593736 288.937955,4.79422508 288.357428,3.72675974 C288.06118,3.18156502 287.693114,2.50380924 287.418811,2.50380924 C287.145504,2.50380924 286.777438,3.18156502 286.48119,3.72675974 C285.900664,4.79422508 285.106679,6.2593736 283.342157,6.2593736 C281.575641,6.2593736 280.780659,4.79422508 280.198137,3.72576304 C279.886927,3.15365743 279.535818,2.50380924 279.259519,2.50380924 C278.986213,2.50380924 278.619145,3.18156502 278.323894,3.72576304 C277.741373,4.79422508 276.948385,6.2593736 275.182866,6.2593736 C273.41635,6.2593736 272.621368,4.79422508 272.039844,3.72675974 C271.730628,3.15365743 271.37553,2.50380924 271.102223,2.50380924 C270.825925,2.50380924 270.471823,3.15365743 270.160613,3.72675974 C269.579089,4.79522178 268.784107,6.2593736 267.018588,6.2593736 C265.251074,6.2593736 264.455094,4.79522178 263.874568,3.72775644 C263.563357,3.15365743 263.210254,2.50380924 262.932957,2.50380924 L262.932957,9.9669967e-05 C264.700471,9.9669967e-05 265.495454,1.46325479 266.07598,2.53171683 C266.388188,3.10581584 266.742289,3.75566403 267.018588,3.75566403 C267.293889,3.75566403 267.646993,3.10382244 267.959201,2.53171683 C268.539727,1.46325479 269.335707,9.9669967e-05 271.102223,9.9669967e-05 C272.866745,9.9669967e-05 273.661727,1.46325479 274.243251,2.53171683 C274.555459,3.10581584 274.908563,3.75566403 275.182866,3.75566403 C275.45717,3.75566403 275.824238,3.07790825 276.120487,2.53271353 C276.701013,1.46425149 277.495995,9.9669967e-05 279.259519,9.9669967e-05 C281.026036,9.9669967e-05 281.821018,1.46325479 282.401545,2.53171683 C282.713752,3.10581584 283.066856,3.75566403 283.342157,3.75566403 C283.615464,3.75566403 283.98353,3.07790825 284.27878,2.53271353 C284.859307,1.46425149 285.655287,9.9669967e-05 287.418811,9.9669967e-05 C289.18433,9.9669967e-05 289.979312,1.46425149 290.560836,2.53171683 C290.856087,3.07790825 291.224152,3.75566403 291.498456,3.75566403 L291.498456,6.2593736 Z" id="Fill-70" fill="#444243" mask="url(#mask-2)"></path>
                <path d="M179.180028,33.7913083 C179.180028,34.429196 178.66334,34.9454865 178.025957,34.9454865 L175.788636,34.9454865 L175.788636,39.2741531 L170.308545,34.9454865 L163.012064,34.9454865 C162.372687,34.9454865 161.856995,34.429196 161.856995,33.7913083 L161.856995,23.7086944 C161.856995,23.0708066 162.372687,22.5525228 163.012064,22.5525228 L178.025957,22.5525228 C178.66334,22.5525228 179.180028,23.0708066 179.180028,23.7086944 L179.180028,33.7913083 Z" id="Fill-71" fill="#BF3148" mask="url(#mask-2)"></path>
                <path d="M153.504894,40.1628106 L156.894291,40.1628106 L156.894291,43.1578931 L160.686666,40.1628106 L168.321289,40.1628106 L168.321289,30.2745531 L153.504894,30.2745531 L153.504894,40.1628106 Z M154.388651,48.328771 L154.388651,42.6675168 L153.403152,42.6675168 C152.077516,42.6675168 150.997258,41.5880911 150.997258,40.2614838 L150.997258,30.1778733 C150.997258,28.8502693 152.077516,27.7698469 153.403152,27.7698469 L168.418043,27.7698469 C169.745673,27.7698469 170.825932,28.8502693 170.825932,30.1778733 L170.825932,40.2614838 C170.825932,41.5880911 169.745673,42.6675168 168.418043,42.6675168 L161.557456,42.6675168 L154.388651,48.328771 Z" id="Fill-72" fill="#444243" mask="url(#mask-2)"></path>
                <path d="M4.47105215,187.284054 C3.38680405,187.284054 2.50504203,188.165137 2.50504203,189.245559 C2.50504203,190.328972 3.38680405,191.209057 4.47105215,191.209057 C5.55430278,191.209057 6.43506734,190.328972 6.43506734,189.245559 C6.43506734,188.165137 5.55430278,187.284054 4.47105215,187.284054 M4.47105215,193.713764 C2.00531038,193.713764 0.000398987342,191.708404 0.000398987342,189.245559 C0.000398987342,186.781717 2.00531038,184.779348 4.47105215,184.779348 C6.93679392,184.779348 8.94070785,186.781717 8.94070785,189.245559 C8.94070785,191.708404 6.93679392,193.713764 4.47105215,193.713764" id="Fill-73" fill="#BF3148" mask="url(#mask-2)"></path>
                <path d="M22.2803509,177.733578 C21.1980977,177.733578 20.3163357,178.614661 20.3163357,179.697077 C20.3163357,180.777499 21.1980977,181.659578 22.2803509,181.659578 C23.3636015,181.659578 24.2453635,180.777499 24.2453635,179.697077 C24.2453635,178.614661 23.3636015,177.733578 22.2803509,177.733578 M22.2803509,184.163288 C19.8156066,184.163288 17.8116927,182.159921 17.8116927,179.697077 C17.8116927,177.233235 19.8156066,175.229869 22.2803509,175.229869 C24.7450952,175.229869 26.7510041,177.233235 26.7510041,179.697077 C26.7510041,182.159921 24.7450952,184.163288 22.2803509,184.163288" id="Fill-74" fill="#BF3148" mask="url(#mask-2)"></path>
                <path d="M22.2803509,196.835427 C21.1980977,196.835427 20.3163357,197.715513 20.3163357,198.796932 C20.3163357,199.880345 21.1980977,200.76043 22.2803509,200.76043 C23.3636015,200.76043 24.2453635,199.880345 24.2453635,198.796932 C24.2453635,197.715513 23.3636015,196.835427 22.2803509,196.835427 M22.2803509,203.26414 C19.8156066,203.26414 17.8116927,201.259777 17.8116927,198.796932 C17.8116927,196.334087 19.8156066,194.330721 22.2803509,194.330721 C24.7450952,194.330721 26.7510041,196.334087 26.7510041,198.796932 C26.7510041,201.259777 24.7450952,203.26414 22.2803509,203.26414" id="Fill-75" fill="#BF3148" mask="url(#mask-2)"></path>
                <polygon id="Fill-76" fill="#BF3148" mask="url(#mask-2)" points="18.3430441 198.183463 6.92203139 191.594282 8.17485165 189.424467 19.5958643 196.014645"></polygon>
                <polygon id="Fill-77" fill="#BF3148" mask="url(#mask-2)" points="8.17455241 189.06715 6.92173215 186.897335 18.3427448 180.307156 19.5955651 182.477968"></polygon>
                <path d="M106.616101,59.7823452 C104.988232,59.7823452 103.668582,58.4627149 103.668582,56.836101 C103.668582,55.2084904 104.988232,53.8908535 106.616101,53.8908535 C108.243969,53.8908535 109.56362,55.2084904 109.56362,56.836101 C109.56362,58.4627149 108.243969,59.7823452 106.616101,59.7823452 M115.358911,55.1088205 L113.911584,55.1088205 C113.575437,55.1088205 113.212359,54.8506752 113.10962,54.5317314 L112.838308,53.8778964 C112.690683,53.5778898 112.760506,53.1383452 112.994911,52.9031241 L114.017316,51.8795135 C114.256708,51.6442924 114.256708,51.2555795 114.017316,51.018365 L112.440318,49.4375993 C112.200926,49.2023782 111.812911,49.2023782 111.575513,49.4375993 L110.552111,50.4592165 C110.313716,50.6974277 109.875827,50.7681934 109.576587,50.6206818 L108.923245,50.3485828 C108.604055,50.2439294 108.344713,49.8821274 108.344713,49.5462396 L108.344713,48.1010251 C108.344713,47.7651373 108.07041,47.4910449 107.734263,47.4910449 L105.497939,47.4910449 C105.161792,47.4910449 104.886491,47.7651373 104.886491,48.1010251 L104.886491,49.5462396 C104.886491,49.8821274 104.627149,50.2439294 104.308956,50.3485828 L103.654617,50.6206818 C103.356374,50.7681934 102.915493,50.6974277 102.679093,50.4592165 L101.655691,49.4375993 C101.418293,49.2023782 101.032273,49.2023782 100.795873,49.4375993 L99.2138881,51.018365 C98.9734982,51.2555795 98.9734982,51.6442924 99.2138881,51.8795135 L100.237291,52.9031241 C100.471696,53.1383452 100.543513,53.5778898 100.394891,53.8778964 L100.125574,54.5317314 C100.018845,54.8506752 99.6567641,55.1088205 99.3226122,55.1088205 L97.8742881,55.1088205 C97.5401362,55.1088205 97.2648349,55.3829129 97.2648349,55.7197974 L97.2648349,57.9553947 C97.2648349,58.2872957 97.5401362,58.5613881 97.8742881,58.5613881 L99.3226122,58.5613881 C99.6567641,58.5613881 100.018845,58.8215267 100.125574,59.1394739 L100.394891,59.7943056 C100.543513,60.0953089 100.471696,60.5338568 100.237291,60.7700746 L99.2138881,61.7916917 C98.9734982,62.0279096 98.9734982,62.4166224 99.2138881,62.6528403 L100.795873,64.2346026 C101.032273,64.4698238 101.418293,64.4698238 101.655691,64.2346026 L102.679093,63.2129855 C102.915493,62.9747743 103.356374,62.9040086 103.654617,63.0535135 L104.308956,63.3226224 C104.627149,63.430266 104.886491,63.7900746 104.886491,64.1259624 L104.886491,65.5721736 C104.886491,65.9070647 105.161792,66.1801604 105.497939,66.1801604 L107.734263,66.1801604 C108.07041,66.1801604 108.344713,65.9070647 108.344713,65.5721736 L108.344713,64.1259624 C108.344713,63.7900746 108.604055,63.430266 108.923245,63.3226224 L109.576587,63.0535135 C109.875827,62.9040086 110.313716,62.9747743 110.552111,63.2129855 L111.575513,64.2346026 C111.812911,64.4698238 112.200926,64.4698238 112.440318,64.2346026 L114.017316,62.6528403 C114.256708,62.4166224 114.256708,62.0279096 114.017316,61.7916917 L112.994911,60.7700746 C112.760506,60.5338568 112.690683,60.0953089 112.838308,59.7943056 L113.10962,59.1394739 C113.212359,58.8215267 113.575437,58.5613881 113.911584,58.5613881 L115.358911,58.5613881 C115.69406,58.5613881 115.968364,58.2872957 115.968364,57.9553947 L115.968364,55.7197974 C115.968364,55.3829129 115.69406,55.1088205 115.358911,55.1088205" id="Fill-78" fill="#BF3148" mask="url(#mask-2)"></path>
                <path d="M228.466037,3.96526997 L228.466037,11.7126165 L235.179996,7.84143498 L228.466037,3.96526997 Z M227.787758,14.677798 C226.729445,14.677798 225.960396,13.8435604 225.960396,12.6923723 L225.960396,2.99049769 C225.960396,1.83731617 226.729445,1.00008845 227.787758,1.00008845 C228.152832,1.00008845 228.518903,1.10374521 228.872007,1.30806865 L237.281662,6.16199604 C237.949966,6.54672211 238.333991,7.15670231 238.333991,7.83744818 C238.335986,8.51819406 237.950964,9.13415446 237.281662,9.51987723 L228.872007,14.3718112 C228.517905,14.5761347 228.152832,14.677798 227.787758,14.677798 L227.787758,14.677798 Z" id="Fill-79" fill="#444243" mask="url(#mask-2)"></path>
                <polygon id="Fill-80" fill="#444243" mask="url(#mask-2)" points="43.670162 266.208515 61.9368 266.208515 61.9368 263.704805 43.670162 263.704805"></polygon>
                <polygon id="Fill-81" fill="#444243" mask="url(#mask-2)" points="65.4179646 266.208515 71.5065114 266.208515 71.5065114 263.704805 65.4179646 263.704805"></polygon>
                <polygon id="Fill-82" fill="#444243" mask="url(#mask-2)" points="74.6894329 266.208515 77.869362 266.208515 77.869362 263.704805 74.6894329 263.704805"></polygon>
                <polygon id="Fill-83" fill="#444243" mask="url(#mask-2)" points="140.911357 12.0550825 144.52319 12.0550825 144.52319 9.55037624 140.911357 9.55037624"></polygon>
                <polygon id="Fill-84" fill="#444243" mask="url(#mask-2)" points="139.785814 8.02791749 137.61632 6.77705941 139.422735 3.64941584 141.593226 4.90127063"></polygon>
                <polygon id="Fill-85" fill="#444243" mask="url(#mask-2)" points="133.564304 8.24011485 131.757889 5.11346799 133.92838 3.8626099 135.734795 6.98826007"></polygon>
                <polygon id="Fill-86" fill="#444243" mask="url(#mask-2)" points="129.194096 12.4786799 132.807924 12.4786799 132.807924 9.9739736 129.194096 9.9739736"></polygon>
                <polygon id="Fill-87" fill="#444243" mask="url(#mask-2)" points="134.296845 18.3794409 132.125356 17.1275861 133.932769 13.9999426 136.104258 15.2527941"></polygon>
                <polygon id="Fill-88" fill="#444243" mask="url(#mask-2)" points="139.789704 18.1672436 137.985284 15.0396 140.154777 13.7877452 141.961192 16.9153888"></polygon>
                <polygon id="Fill-89" fill="#FFFFFF" mask="url(#mask-2)" points="253.551768 293.807228 247.436289 297.336542 241.319813 300.863862 241.319813 293.807228 241.319813 286.751591 247.436289 290.277915"></polygon>
                <polygon id="Fill-90" fill="#444243" mask="url(#mask-2)" points="375.642293 213.399679 373.870789 211.62954 379.395767 206.107824 381.168268 207.877962"></polygon>
                <polygon id="Fill-91" fill="#444243" mask="url(#mask-2)" points="379.395467 213.398682 373.87049 207.877962 375.641994 206.107824 381.167969 211.628543"></polygon>
                <polygon id="Fill-92" fill="#444243" mask="url(#mask-2)" points="179.921247 80.7150317 178.149743 78.9448931 183.674721 73.4251703 185.446224 75.1953089"></polygon>
                <polygon id="Fill-93" fill="#444243" mask="url(#mask-2)" points="183.674421 80.714035 178.149444 75.1953089 179.920948 73.4241736 185.445925 78.9448931"></polygon>
                <polygon id="Fill-94" fill="#444243" mask="url(#mask-2)" points="352.244678 189.204395 350.474172 187.435253 355.384708 182.525511 357.158207 184.29565"></polygon>
                <polygon id="Fill-95" fill="#444243" mask="url(#mask-2)" points="355.385107 189.203399 350.473573 184.29565 352.245077 182.525511 357.157609 187.434257"></polygon>
                <path d="M67.3476668,236.381181 L60.769363,242.955412" id="Fill-96" fill="#FFFFFF" mask="url(#mask-2)"></path>
                <polygon id="Fill-97" fill="#444243" mask="url(#mask-2)" points="61.6550152 243.84088 59.8835114 242.070741 66.4628127 235.495514 68.2353139 237.265652"></polygon>
                <path d="M67.349562,242.955113 L60.7692633,236.380882" id="Fill-98" fill="#FFFFFF" mask="url(#mask-2)"></path>
                <polygon id="Fill-99" fill="#444243" mask="url(#mask-2)" points="66.4631119 243.84088 59.8828132 237.265652 61.6553144 235.495514 68.2346157 242.070741"></polygon>
                <path d="M59.4896111,202.874032 C58.9729225,202.874032 58.3325478,203.040481 57.6881833,203.345471 C55.9296466,204.171735 55.016963,205.545187 55.1057377,206.016626 C55.127682,206.040547 55.3012415,206.129253 55.6752922,206.129253 C56.1919808,206.129253 56.831358,205.961807 57.47672,205.657814 C59.2322643,204.83155 60.1489377,203.456104 60.060163,202.982672 C60.0392162,202.962738 59.8656567,202.874032 59.4896111,202.874032 M55.6752922,208.632962 C54.0544061,208.632962 52.891358,207.806698 52.6419909,206.477101 C52.2469934,204.371075 54.3975352,202.124514 56.6218896,201.077979 C57.6053934,200.614514 58.5978744,200.369325 59.4896111,200.369325 C61.1104972,200.369325 62.2735453,201.194593 62.5249073,202.522197 C62.9169124,204.63221 60.7653732,206.878771 58.5440111,207.923312 C57.5575149,208.387774 56.5650339,208.632962 55.6752922,208.632962" id="Fill-100" fill="#444243" mask="url(#mask-2)"></path>
                <polygon id="Fill-101" fill="#444243" mask="url(#mask-2)" points="62.5696937 202.748448 60.0640532 202.748448 60.0640532 180.97355 68.0527772 184.116144 68.0527772 189.960791 65.5461392 189.960791 65.5461392 185.821497 62.5696937 184.650375"></polygon>
                <polygon id="Fill-102" fill="#444243" mask="url(#mask-2)" points="42.6168354 183.80637 56.7719089 183.80637 56.7719089 181.301663 42.6168354 181.301663"></polygon>
                <polygon id="Fill-103" fill="#444243" mask="url(#mask-2)" points="42.6168354 197.190053 55.6956405 197.190053 55.6956405 194.686343 42.6168354 194.686343"></polygon>
                <polygon id="Fill-104" fill="#444243" mask="url(#mask-2)" points="42.6168354 203.883888 49.580162 203.883888 49.580162 201.378185 42.6168354 201.378185"></polygon>
                <polygon id="Fill-105" fill="#444243" mask="url(#mask-2)" points="42.6168354 190.499208 56.7719089 190.499208 56.7719089 187.995498 42.6168354 187.995498"></polygon>
                <path d="M207.465637,216.219442 L154.461167,216.219442 C149.137678,216.219442 144.824625,219.933145 144.824625,224.511983 L144.824625,225.241567 C144.824625,237.162095 135.137212,246.859983 123.230432,246.859983 C111.305698,246.859983 101.604321,237.162095 101.604321,225.241567 L101.604321,182.760234 L76.5449235,182.760234 L76.5449235,225.241567 C76.5449235,250.969376 97.4877691,271.901065 123.230432,271.901065 C131.018665,271.901065 138.363025,269.972451 144.824625,266.582676 L144.824625,275.028709 L217.103177,275.028709 L217.103177,224.511983 C217.103177,219.933145 212.787131,216.219442 207.465637,216.219442" id="Fill-106" fill="#A0293D" mask="url(#mask-2)"></path>
                <path d="M158.534129,275.028609 L158.534129,228.158807 C158.534129,224.151078 161.211334,220.904827 164.513952,220.904827 L197.413451,220.904827 C200.717066,220.904827 203.394271,224.151078 203.394271,228.158807 L203.394271,275.028609" id="Fill-107" fill="#FFFFFF" mask="url(#mask-2)"></path>
                <path d="M204.64759,275.028609 L202.140952,275.028609 L202.140952,228.158807 C202.140952,224.847771 200.020334,222.156682 197.412952,222.156682 L164.514451,222.156682 C161.907068,222.156682 159.786451,224.847771 159.786451,228.158807 L159.786451,275.028609 L157.281808,275.028609 L157.281808,228.158807 C157.281808,223.469335 160.526572,219.651976 164.514451,219.651976 L197.412952,219.651976 C201.401828,219.651976 204.64759,223.469335 204.64759,228.158807 L204.64759,275.028609 Z" id="Fill-108" fill="#444243" mask="url(#mask-2)"></path>
                <path d="M180.964499,233.620821 C188.449502,233.620821 194.539046,227.53597 194.539046,220.055739 L194.539046,216.219442 L167.389952,216.219442 L167.389952,220.055739 C167.389952,227.53597 173.477502,233.620821 180.964499,233.620821" id="Fill-109" fill="#FFFFFF" mask="url(#mask-2)"></path>
                <path d="M168.643271,217.471197 L168.643271,220.055639 C168.643271,226.845157 174.169246,232.368867 180.964001,232.368867 C187.759752,232.368867 193.285727,226.845157 193.285727,220.055639 L193.285727,217.471197 L168.643271,217.471197 Z M180.964001,234.872576 C172.78875,234.872576 166.136633,228.226583 166.136633,220.055639 L166.136633,214.967487 L195.792365,214.967487 L195.792365,220.055639 C195.792365,228.226583 189.141246,234.872576 180.964001,234.872576 L180.964001,234.872576 Z" id="Fill-110" fill="#444243" mask="url(#mask-2)"></path>
                <path d="M188.274147,220.05534 C188.274147,224.08998 185.001453,227.360152 180.964699,227.360152 C176.927944,227.360152 173.655251,224.08998 173.655251,220.05534 L173.655251,196.683729 C173.655251,192.650086 176.927944,189.380911 180.964699,189.380911 C185.001453,189.380911 188.274147,192.650086 188.274147,196.683729 L188.274147,220.05534 Z" id="Fill-111" fill="#FFFFFF" mask="url(#mask-2)"></path>
                <path d="M180.964499,190.632267 C177.623978,190.632267 174.908869,193.347277 174.908869,196.683231 L174.908869,220.054842 C174.908869,223.391792 177.623978,226.108795 180.964499,226.108795 C184.303026,226.108795 187.021127,223.391792 187.021127,220.054842 L187.021127,196.683231 C187.021127,193.347277 184.303026,190.632267 180.964499,190.632267 M180.964499,228.611508 C176.244479,228.611508 172.402231,224.774215 172.402231,220.054842 L172.402231,196.683231 C172.402231,191.965851 176.244479,188.127561 180.964499,188.127561 C185.685517,188.127561 189.527765,191.965851 189.527765,196.683231 L189.527765,220.054842 C189.527765,224.774215 185.685517,228.611508 180.964499,228.611508" id="Fill-112" fill="#444243" mask="url(#mask-2)"></path>
                <path d="M176.312307,161.61515 C176.312307,171.539289 168.569957,179.584649 159.020195,179.584649 C149.469436,179.584649 141.727087,171.539289 141.727087,161.61515 C141.727087,151.690015 149.469436,143.644655 159.020195,143.644655 C168.569957,143.644655 176.312307,151.690015 176.312307,161.61515" id="Fill-113" fill="#BF3148" mask="url(#mask-2)"></path>
                <path d="M159.020195,144.896012 C150.175644,144.896012 142.979907,152.396177 142.979907,161.614652 C142.979907,170.832131 150.175644,178.333292 159.020195,178.333292 C167.86375,178.333292 175.058489,170.832131 175.058489,161.614652 C175.058489,152.396177 167.86375,144.896012 159.020195,144.896012 M159.020195,180.837002 C148.793152,180.837002 140.473269,172.214553 140.473269,161.614652 C140.473269,151.015748 148.793152,142.391306 159.020195,142.391306 C169.246241,142.391306 177.565127,151.015748 177.565127,161.614652 C177.565127,172.214553 169.246241,180.837002 159.020195,180.837002" id="Fill-114" fill="#444243" mask="url(#mask-2)"></path>
                <path d="M165.936242,181.217143 C165.936242,187.56911 160.981817,192.718061 154.870328,192.718061 C148.756845,192.718061 143.801422,187.56911 143.801422,181.217143 C143.801422,174.86418 148.756845,169.715229 154.870328,169.715229 C160.981817,169.715229 165.936242,174.86418 165.936242,181.217143" id="Fill-115" fill="#BF3148" mask="url(#mask-2)"></path>
                <path d="M154.870627,170.967881 C149.458364,170.967881 145.055539,175.56466 145.055539,181.216944 C145.055539,186.868231 149.458364,191.466007 154.870627,191.466007 C160.279898,191.466007 164.683721,186.868231 164.683721,181.216944 C164.683721,175.56466 160.279898,170.967881 154.870627,170.967881 M154.870627,193.969716 C148.075873,193.969716 142.547903,188.24866 142.547903,181.216944 C142.547903,174.184231 148.075873,168.463175 154.870627,168.463175 C161.662389,168.463175 167.189362,174.184231 167.189362,181.216944 C167.189362,188.24866 161.662389,193.969716 154.870627,193.969716" id="Fill-116" fill="#444243" mask="url(#mask-2)"></path>
                <path d="M168.012073,172.231298 C168.012073,178.584261 163.056651,183.732215 156.945162,183.732215 C150.831678,183.732215 145.877253,178.584261 145.877253,172.231298 C145.877253,165.880327 150.831678,160.731377 156.945162,160.731377 C163.056651,160.731377 168.012073,165.880327 168.012073,172.231298" id="Fill-117" fill="#FFFFFF" mask="url(#mask-2)"></path>
                <path d="M156.945362,161.983032 C151.533098,161.983032 147.130273,166.580808 147.130273,172.231098 C147.130273,177.883382 151.533098,182.480161 156.945362,182.480161 C162.356627,182.480161 166.759453,177.883382 166.759453,172.231098 C166.759453,166.580808 162.356627,161.983032 156.945362,161.983032 M156.945362,184.984867 C150.151605,184.984867 144.623635,179.263811 144.623635,172.231098 C144.623635,165.199382 150.151605,159.478326 156.945362,159.478326 C163.739118,159.478326 169.264096,165.199382 169.264096,172.231098 C169.264096,179.263811 163.739118,184.984867 156.945362,184.984867" id="Fill-118" fill="#444243" mask="url(#mask-2)"></path>
                <path d="M211.587975,181.217143 C211.587975,187.56911 206.633549,192.718061 200.521063,192.718061 C194.408577,192.718061 189.455149,187.56911 189.455149,181.217143 C189.455149,174.86418 194.408577,169.715229 200.521063,169.715229 C206.633549,169.715229 211.587975,174.86418 211.587975,181.217143" id="Fill-119" fill="#BF3148" mask="url(#mask-2)"></path>
                <path d="M200.521363,170.967881 C195.110097,170.967881 190.708269,175.56466 190.708269,181.216944 C190.708269,186.868231 195.110097,191.466007 200.521363,191.466007 C205.932628,191.466007 210.335454,186.868231 210.335454,181.216944 C210.335454,175.56466 205.932628,170.967881 200.521363,170.967881 M200.521363,193.969716 C193.727606,193.969716 188.201631,188.24866 188.201631,181.216944 C188.201631,174.184231 193.727606,168.463175 200.521363,168.463175 C207.315119,168.463175 212.842092,174.184231 212.842092,181.216944 C212.842092,188.24866 207.315119,193.969716 200.521363,193.969716" id="Fill-120" fill="#444243" mask="url(#mask-2)"></path>
                <path d="M201.839317,182.944822 C201.839317,196.55974 190.79435,207.599185 177.167935,207.599185 C163.54152,207.599185 152.494558,196.55974 152.494558,182.944822 L152.494558,163.219139 C152.494558,149.604222 163.54152,138.56677 177.167935,138.56677 C190.79435,138.56677 201.839317,149.604222 201.839317,163.219139 L201.839317,182.944822 Z" id="Fill-121" fill="#FFFFFF" mask="url(#mask-2)"></path>
                <path d="M177.167536,139.818126 C164.253313,139.818126 153.746979,150.316364 153.746979,163.219638 L153.746979,182.945321 C153.746979,195.848595 164.253313,206.347829 177.167536,206.347829 C190.081759,206.347829 200.587096,195.848595 200.587096,182.945321 L200.587096,163.219638 C200.587096,150.316364 190.081759,139.818126 177.167536,139.818126 M177.167536,208.851539 C162.872817,208.851539 151.242336,197.23002 151.242336,182.945321 L151.242336,163.219638 C151.242336,148.935935 162.872817,137.31342 177.167536,137.31342 C191.462255,137.31342 203.091739,148.935935 203.091739,163.219638 L203.091739,182.945321 C203.091739,197.23002 191.462255,208.851539 177.167536,208.851539" id="Fill-122" fill="#444243" mask="url(#mask-2)"></path>
                <path d="M199.465443,145.173493 L217.044825,162.737335 L213.865893,165.913817 C204.138582,175.631638 188.374592,175.631638 178.650273,165.913817 L156.677043,143.958516 C168.916977,133.027711 187.715265,133.431374 199.465443,145.173493" id="Fill-123" fill="#BF3148" mask="url(#mask-2)"></path>
                <path d="M158.520564,144.030777 L179.536224,165.029246 C184.003885,169.492467 189.940817,171.950328 196.257784,171.950328 C202.573753,171.950328 208.511683,169.492467 212.978346,165.029246 L215.272523,162.736836 L198.57989,146.059061 C192.930229,140.413754 185.419293,137.305048 177.430569,137.305048 C170.508138,137.305048 163.846047,139.68417 158.520564,144.030777 M196.257784,174.454038 C189.270518,174.454038 182.704184,171.737034 177.765718,166.799384 L154.852872,143.908183 L155.842361,143.025107 C161.78029,137.721668 169.446832,134.800341 177.430569,134.800341 C186.088594,134.800341 194.229931,138.170183 200.352391,144.288922 L218.817526,162.736836 L214.750847,166.799384 C209.810386,171.737034 203.242057,174.454038 196.257784,174.454038" id="Fill-124" fill="#444243" mask="url(#mask-2)"></path>
                <path d="M170.291388,174.672415 L168.242588,174.672415 C168.242588,172.507583 166.482057,170.747411 164.31755,170.747411 C162.151049,170.747411 160.38952,172.507583 160.38952,174.672415 L158.342715,174.672415 C158.342715,171.380316 161.022912,168.70318 164.31755,168.70318 C167.610193,168.70318 170.291388,171.380316 170.291388,174.672415" id="Fill-125" fill="#444243" mask="url(#mask-2)"></path>
                <polygon id="Fill-126" fill="#444243" mask="url(#mask-2)" points="171.815919 192.587294 181.15322 192.587294 181.15322 190.082587 171.815919 190.082587"></polygon>
                <path d="M108.916961,163.707821 L110.669513,163.707821 C110.886961,163.707821 111.060521,163.88623 111.060521,164.105504 L111.060521,166.932145 C111.060521,167.154409 110.886961,167.333815 110.669513,167.333815 L108.916961,167.333815" id="Fill-127" fill="#FFFFFF" mask="url(#mask-2)"></path>
                <path d="M110.669313,168.586168 L108.916762,168.586168 L108.916762,166.080465 L109.806503,166.080465 L109.806503,164.960174 L108.916762,164.960174 L108.916762,162.456465 L110.669313,162.456465 C111.57701,162.456465 112.313141,163.196016 112.313141,164.106003 L112.313141,166.932643 C112.313141,167.84562 111.57701,168.586168 110.669313,168.586168" id="Fill-128" fill="#444243" mask="url(#mask-2)"></path>
                <polygon id="Fill-129" fill="#444243" mask="url(#mask-2)" points="70.5367727 168.580287 69.5043929 168.580287 62.7445499 165.518426 69.5053904 162.455568 70.5367727 162.455568 70.5367727 164.960274 70.0470157 164.960274 68.8141448 165.518426 70.0470157 166.075581 70.5367727 166.075581"></polygon>
                <polygon id="Fill-130" fill="#FFFFFF" mask="url(#mask-2)" points="71.9364203 168.348554 80.644319 168.348554 80.644319 162.694277 71.9364203 162.694277"></polygon>
                <path d="M84.1847332,180.360679 L81.6780952,180.360679 L81.6780952,178.452996 C80.1030927,177.052633 79.2113559,175.081161 79.2113559,172.953207 L79.2113559,162.313438 L79.3270623,159.901425 C79.3250673,158.014673 80.911042,156.42992 82.8610927,156.42992 C83.5463534,156.42992 84.1179028,156.536567 84.584718,156.718963 C85.23008,155.852831 86.2624597,155.290692 87.421518,155.290692 C88.0160091,155.290692 88.5735939,155.436211 89.0643484,155.694356 C89.7007332,154.762442 90.7730116,154.149471 91.9849357,154.149471 C93.284637,154.149471 94.4257408,154.855135 95.0381863,155.902666 C95.5309357,155.658475 96.0795433,155.518937 96.6490977,155.518937 C98.641042,155.518937 100.261928,157.138574 100.261928,159.128983 L100.261928,168.875709 L97.7562876,168.875709 L97.7562876,159.128983 C97.7562876,158.519999 97.2585509,158.023643 96.6490977,158.023643 C96.02568,158.023643 95.520961,158.593755 95.520961,158.966521 L93.0153205,158.966521 L93.0153205,157.681775 C93.0153205,157.11565 92.5534927,156.654178 91.9849357,156.654178 C91.4183737,156.654178 90.9565458,157.11565 90.9565458,157.681775 L90.9565458,158.823993 L88.4499078,158.823993 C88.4499078,158.254877 87.9900749,157.794402 87.421518,157.794402 C86.8559534,157.794402 86.395123,158.254877 86.395123,158.823993 L86.395123,159.393108 L83.8894825,159.392112 C83.8894825,159.219683 83.8844952,158.934626 82.8610927,158.934626 C82.2935332,158.934626 81.8307078,159.396098 81.8307078,159.96322 L81.7150015,162.37324 L81.7169965,172.953207 C81.7169965,174.500085 82.4331787,175.923372 83.6820091,176.85728 L84.1847332,177.232039 L84.1847332,180.360679 Z" id="Fill-131" fill="#444243" mask="url(#mask-2)"></path>
                <path d="M102.555108,158.306706 C99.9417408,158.306706 97.8161357,160.428679 97.8161357,163.040032 L97.8161357,168.875709 L100.322774,168.875709 L100.322774,163.040032 C100.322774,161.841999 101.274358,160.861247 102.462343,160.812409 L102.462343,162.694178 L102.462343,163.799517 L102.462343,164.773293 L102.462343,167.746448 L102.462343,169.250468 L96.2032294,176.527372 C95.5937762,177.088514 94.8496648,177.489187 94.0457053,177.684541 L93.0901306,177.917768 L93.0901306,180.360679 L95.5957711,180.360679 L95.5957711,179.814488 C96.4735433,179.468633 97.2814927,178.955333 97.9707433,178.303491 L104.888186,170.271088 L104.888186,158.306706 L102.555108,158.306706 Z" id="Fill-132" fill="#444243" mask="url(#mask-2)"></path>
                <polygon id="Fill-133" fill="#FFFFFF" mask="url(#mask-2)" points="100.120886 168.348554 107.498162 168.348554 107.498162 162.694277 100.120886 162.694277"></polygon>
                <path d="M156.260599,167.254677 L156.260599,169.958723 C156.260599,174.89438 160.279399,178.910083 165.217865,178.910083 C170.158326,178.910083 174.178124,174.89438 174.178124,169.958723 L174.178124,167.254677 L156.260599,167.254677 Z M165.217865,181.413792 C158.896908,181.413792 153.754959,176.274809 153.754959,169.958723 L153.754959,164.750967 L176.683764,164.750967 L176.683764,169.958723 C176.683764,176.274809 171.538822,181.413792 165.217865,181.413792 L165.217865,181.413792 Z" id="Fill-134" fill="#444243" mask="url(#mask-2)"></path>
                <polygon id="Fill-135" fill="#444243" mask="url(#mask-2)" points="175.410795 167.255175 179.073499 167.255175 179.073499 164.751465 175.410795 164.751465"></polygon>
                <path d="M324.442143,178.821775 C324.442143,191.411088 314.229064,201.619286 301.629044,201.619286 C289.029024,201.619286 278.815945,191.411088 278.815945,178.821775 L278.815945,160.582171 C278.815945,147.991861 289.029024,137.786653 301.629044,137.786653 C314.229064,137.786653 324.442143,147.991861 324.442143,160.582171 L324.442143,178.821775 Z" id="Fill-136" fill="#FFFFFF" mask="url(#mask-2)"></path>
                <path d="M265.117114,301.871426 L265.117114,218.262277 C265.117114,212.61398 270.29597,208.032152 276.687747,208.032152 L293.527008,208.032152 L293.527008,211.401993 L301.754127,216.152264 L309.982243,211.401993 L309.982243,208.032152 L327.454896,208.032152 C333.842684,208.032152 339.021539,212.61398 339.021539,218.262277 L339.021539,301.871426" id="Fill-137" fill="#A0293D" mask="url(#mask-2)"></path>
                <path d="M320.063656,192.246123 C315.90521,186.665602 309.253094,183.051569 301.756122,183.051569 C294.179352,183.051569 287.469382,186.744341 283.320911,192.423536 C287.479357,198.004057 294.131473,201.619087 301.628446,201.619087 C309.205215,201.619087 315.915185,197.925318 320.063656,192.246123" id="Fill-138" fill="#BF3148" mask="url(#mask-2)"></path>
                <path d="M278.777842,186.407058 L278.394814,186.407058 C275.031351,186.407058 272.296293,183.673111 272.296293,180.31224 L272.296293,178.737454 L275.304657,178.737454 L275.304657,180.31224 C275.304657,182.015599 276.692136,183.401012 278.394814,183.401012 L278.777842,183.401012 L278.777842,186.407058 Z" id="Fill-139" fill="#434244" mask="url(#mask-2)"></path>
                <path d="M325.776656,186.407058 L325.390635,186.407058 L325.390635,183.401012 L325.776656,183.401012 C327.480332,183.401012 328.869805,182.015599 328.869805,180.31224 L328.869805,175.799183 C328.869805,174.09682 327.480332,172.711408 325.776656,172.711408 L325.390635,172.711408 L325.390635,169.703368 L325.776656,169.703368 C329.141116,169.703368 331.87817,172.438312 331.87817,175.799183 L331.87817,180.31224 C331.87817,183.673111 329.141116,186.407058 325.776656,186.407058" id="Fill-140" fill="#434244" mask="url(#mask-2)"></path>
                <path d="M280.244819,150.353541 L280.106171,150.894749 L279.643345,151.207712 C276.886343,153.075527 275.23653,156.17626 275.23653,159.499257 L275.23653,171.604174 C280.548049,171.362973 284.792277,166.969521 284.792277,161.60329 L284.792277,154.039336 L286.720383,154.664267 C287.730819,154.993178 288.768186,155.16162 289.805553,155.16162 L313.339821,155.16162 C318.864798,155.16162 323.357396,150.669494 323.357396,145.149772 L323.357396,139.682874 L293.957016,139.682874 C287.477462,139.682874 281.838773,144.069349 280.244819,150.353541" id="Fill-141" fill="#BF3148" mask="url(#mask-2)"></path>
                <path d="M323.356997,145.150071 C323.356997,150.669793 318.864399,155.161919 313.339422,155.161919 L289.805154,155.161919 C288.767787,155.161919 287.73042,154.993477 286.720982,154.664566 L284.791878,154.039635 L284.791878,161.603589 C284.791878,166.96982 280.54765,171.363272 275.237129,171.604473 L275.237129,159.498559 C275.237129,156.176559 276.885944,153.07483 279.643944,151.208011 L280.106769,150.895048 L280.24442,150.35384 C281.838374,144.069648 287.477063,139.683173 293.956617,139.683173 L323.356997,139.683173 L323.356997,145.150071 Z M293.956617,136.739919 C286.314015,136.739919 279.638956,141.796176 277.534298,149.097001 C274.24365,151.537919 272.296592,155.384183 272.296592,159.498559 L272.296592,174.556698 L274.776298,174.556698 C281.923159,174.556698 287.737402,168.745939 287.737402,161.603589 L287.737402,157.932744 C288.420668,158.043378 289.112911,158.102183 289.805154,158.102183 L313.339422,158.102183 C320.487281,158.102183 326.300526,152.29242 326.300526,145.150071 L326.300526,136.739919 L293.956617,136.739919 Z" id="Fill-142" fill="#434244" mask="url(#mask-2)"></path>
                <polygon id="Fill-143" fill="#434244" mask="url(#mask-2)" points="289.925149 172.33934 293.910035 172.33934 293.910035 169.332297 289.925149 169.332297"></polygon>
                <polygon id="Fill-144" fill="#434244" mask="url(#mask-2)" points="313.838456 172.33934 317.825337 172.33934 317.825337 169.332297 313.838456 169.332297"></polygon>
                <polygon id="Fill-145" fill="#434244" mask="url(#mask-2)" points="309.673028 179.69 298.078456 179.69 298.078456 166.518614 289.470304 166.518614 289.470304 163.512568 301.087818 163.512568 301.087818 176.683954 306.664663 176.683954 306.664663 165.014594 309.673028 165.014594"></polygon>
                <path d="M316.734206,215.300584 L301.754226,223.940974 L286.777239,215.300584 L286.777239,209.607436 L290.368125,209.607436 L290.368125,213.226452 L301.754226,219.79271 L313.138333,213.226452 L313.138333,209.607436 L316.734206,209.607436 L316.734206,215.300584 Z M327.370211,206.454875 L313.138333,206.454875 L313.138333,198.901884 L309.981345,198.901884 L309.981345,211.402492 L301.754226,216.151766 L293.52611,211.402492 L293.52611,198.805205 L290.368125,198.805205 L290.368125,206.454875 L276.143229,206.454875 C268.834778,206.454875 262.891862,211.791205 262.891862,218.354472 L262.891862,260.008545 L266.046854,260.008545 L266.046854,218.354472 C266.046854,213.531442 270.577355,209.607436 276.143229,209.607436 L283.622247,209.607436 L283.622247,217.120558 L301.754226,227.579924 L319.889198,217.120558 L319.889198,209.607436 L327.370211,209.607436 C332.933092,209.607436 337.463593,213.531442 337.463593,218.354472 L337.463593,290.876333 L340.617588,290.876333 L340.617588,218.354472 C340.617588,211.791205 334.675669,206.454875 327.370211,206.454875 L327.370211,206.454875 Z" id="Fill-146" fill="#434244" mask="url(#mask-2)"></path>
                <path d="M301.716622,203.1251 C288.209903,203.1251 277.216804,192.140473 277.216804,178.644163 L277.216804,172.445688 L280.524409,172.445688 L280.524409,178.644163 C280.524409,190.31751 290.033275,199.821041 301.716622,199.821041 C313.403958,199.821041 322.908834,190.31751 322.908834,178.644163 L322.908834,160.022823 L326.216439,160.022823 L326.216439,178.644163 C326.216439,192.140473 315.227331,203.1251 301.716622,203.1251" id="Fill-147" fill="#434244" mask="url(#mask-2)"></path>
                <path d="M303.078465,193.013084 C305.690835,193.013084 308.138622,191.475176 309.622855,188.897711 L307.403488,187.618945 C306.382081,189.392074 304.763189,190.450569 303.078465,190.450569 C301.391746,190.450569 299.773853,189.392074 298.751448,187.618945 L296.530086,188.897711 C298.017311,191.475176 300.463103,193.013084 303.078465,193.013084" id="Fill-148" fill="#444243" mask="url(#mask-2)"></path>
                <polygon id="Fill-149" fill="#BF3148" mask="url(#mask-2)" points="316.734206 215.300584 301.754226 223.940974 286.777239 215.300584 286.777239 209.607436 290.368125 209.607436 290.368125 213.226452 301.754226 219.79271 313.138333 213.226452 313.138333 209.607436 316.734206 209.607436"></polygon>
            </g>
        </g>
    </g>
</svg>